<svg width="437.772" height="128mm" viewBox="0 0 115.827 128" xml:space="preserve" xmlns="http://www.w3.org/2000/svg"><g style="fill:none;stroke:#000;stroke-width:3.77953;stroke-dasharray:none;stroke-opacity:1"><path style="fill:none;fill-opacity:1;stroke:#000;stroke-width:3.77953;stroke-dasharray:none;stroke-opacity:1" d="M356.749 546.694c-2.127-.4-4.172-.545-4.544-.322-.372.224-1.15-.476-1.726-1.554-.577-1.079-1.687-1.96-2.466-1.96-.779 0-1.416-.766-1.416-1.702 0-.935-.87-2.244-1.933-2.908-1.069-.668-1.934-2.255-1.934-3.548 0-1.287-.653-2.992-1.45-3.79-.798-.797-1.45-2.167-1.45-3.044 0-1.707-4.576-6.603-6.545-7.003-.654-.133-1.19.193-1.19.725 0 .531-.326.915-.725.852-.399-.063-.943-.027-1.208.08-1.64.662-4.834.54-4.834-.184 0-.474-.465-.575-1.032-.225-.568.351-1.27-.27-1.56-1.382-.29-1.111-.884-1.8-1.319-1.532-.434.269-1.067.04-1.407-.51-.34-.549-1.034-.74-1.544-.425s-1.713-.399-2.675-1.586c-1.077-1.33-2.89-2.193-4.726-2.249-1.639-.05-2.792.097-2.563.326.68.679-4.694 5.868-6.075 5.868-.698 0-1.27.388-1.27.863s-.683 1.126-1.52 1.447c-1.805.693-5.526-1.077-4.785-2.276.284-.46-.03-1.056-.698-1.325-.965-.39-.966-.506-.006-.566a1.314 1.314 0 0 0 1.209-1.294c0-.67.87-1.761 1.933-2.426 1.064-.664 1.934-1.856 1.934-2.65 0-.792.46-1.441 1.024-1.441.563 0 .765-.419.449-.93-.36-.582-1.495-.512-3.027.186-2.892 1.318-4.531-.275-3.927-3.815.201-1.178-.115-2.34-.702-2.585-.721-.3-.649-.738.223-1.35.71-.499 1.244-1.276 1.185-1.727-.058-.451 1.21-.97 2.818-1.154 1.608-.184 2.924.053 2.924.525 0 1.666 3.172.836 3.64-.952.26-.996 1.786-2.49 3.391-3.32 2.258-1.168 2.613-1.702 1.57-2.363-.743-.47-.937-.861-.432-.87.505-.008.443-.49-.137-1.07-.598-.598-.837-2.693-.551-4.825.299-2.23.035-4.336-.646-5.157-.634-.763-1.057-1.963-.94-2.667.304-1.844-1.09-4.875-3.171-6.897-2.555-2.483-1.488-3.392 3.789-3.228 4.425.138 4.658.006 6.587-3.724 1.1-2.127 3.195-4.446 4.655-5.154 1.46-.708 3.079-2.448 3.597-3.867.518-1.42 1.215-3.233 1.55-4.03.334-.798.517-1.842.406-2.32-.11-.479.096-1.566.458-2.417.363-.852.8-2.63.973-3.951.173-1.322.744-2.546 1.268-2.721.525-.175.715-.943.422-1.706s-.065-1.388.507-1.388c.572 0 .791-.65.486-1.443-.378-.985-1.3-1.256-2.908-.853-1.295.325-2.285.214-2.201-.248.344-1.894-.15-2.934-1.394-2.934-.802 0-1.136.694-.854 1.772.529 2.024-1.647 2.384-4.66.772-1.826-.977-2.511-3.837-1.227-5.12 1.058-1.059 1.226-5.407.232-6.021-.507-.314-.826-.212-.707.226.37 1.37-1.22 5.148-2.167 5.148-.496 0-.901.585-.901 1.3 0 1.648-3.327 4.72-4.183 3.863-.354-.354-1.097.66-1.652 2.253-.555 1.593-1.612 2.897-2.348 2.897-.736 0-5.82-3.869-11.298-8.596-6.658-5.747-10.528-8.447-11.675-8.148-.943.247-1.716-.018-1.716-.588s-.25-.787-.556-.481c-.912.912-7.382-5.927-6.852-7.242.382-.948.505-.94.565.032.057.941.545.992 2.01.208 1.063-.57 1.933-.719 1.933-.333 0 .387.639-.142 1.42-1.174.78-1.032 1.433-1.497 1.45-1.033.017.464.678.306 1.47-.352.792-.657 1.22-1.55.951-1.985-.269-.434-.065-1.052.452-1.371.517-.32.708-1.186.425-1.925-.284-.74-.046-2.222.528-3.294.71-1.328.726-2.147.049-2.566-.548-.338-.937-1.126-.865-1.75.072-.625-.156-2.006-.507-3.07-.351-1.063-.507-2.24-.347-2.617.16-.376-.464-1.246-1.387-1.933-1.848-1.377-3.192-8.501-1.604-8.501.539 0 .73-.404.425-.898-.305-.493.3-1.168 1.344-1.5 1.074-.34 1.681-1.167 1.398-1.905-.275-.716-.034-1.59.536-1.942.722-.447.732-1.207.031-2.515-.551-1.031-.661-1.888-.244-1.905.418-.016-.011-.477-.953-1.026-.942-.548-1.416-1.514-1.053-2.146.362-.632.302-.826-.133-.432-1.005.91-3.544-1.129-2.835-2.276.292-.472.07-.858-.494-.858-.563 0-.955-.326-.87-.725.084-.399-.18-1.485-.586-2.414-.52-1.188.1-2.645 2.087-4.909 2.582-2.94 3.219-3.186 7.354-2.84 2.796.235 4.526-.014 4.526-.65 0-.567.653-1.03 1.45-1.03.798 0 1.45-.653 1.45-1.45 0-.798.395-1.45.877-1.45s.649-.87.37-1.934c-.277-1.064-.112-1.934.369-1.934.48 0 .945-.94 1.031-2.088.087-1.149.505-2.345.93-2.659.426-.313 1.343-1.583 2.038-2.821.976-1.738 1.004-2.564.124-3.626-.628-.756-.839-1.374-.47-1.374s-.013-.684-.848-1.52c-1.875-1.874-1.98-4.28-.188-4.28 1.825 0 3.737-2.488 3.916-5.094.081-1.187.686-2.045 1.344-1.907.658.138 1.447-.404 1.754-1.203.307-.8.948-1.213 1.424-.919.476.294.865.002.865-.65s.27-.916.599-.586c.724.724 3.268-1.669 3.268-3.074 0-.55.883-1.474 1.96-2.051 1.08-.577 1.704-1.466 1.39-1.975-.315-.508.065-1.17.845-1.468.779-.3 1.696-2.036 2.038-3.86.342-1.825.929-3.317 1.304-3.316.374 0 .564-2.501.422-5.56-.142-3.057-.306-6.63-.363-7.936-.057-1.307.362-2.532.93-2.721 1.43-.477.356-3.101-2.564-6.262-1.351-1.463-1.914-2.66-1.252-2.66.663 0 .942-.425.62-.946-.322-.52-.1-1.854.494-2.962.849-1.587 1.662-1.888 3.82-1.414 1.568.345 3.015.158 3.383-.437.353-.572 1.047-.789 1.542-.483.495.306.9.095.9-.468 0-.563.673-1.024 1.496-1.024s2.527-1.111 3.787-2.47c1.26-1.36 3.196-2.54 4.304-2.623 1.108-.084 2.015-.494 2.015-.913 0-.419 1.305-.761 2.9-.761s2.9-.482 2.9-1.07c0-.589.653-.82 1.45-.514.798.306 1.45.11 1.45-.437s.406-.743.9-.437c.496.306 1.173.115 1.506-.424.333-.538 2.923-.885 5.755-.77 2.832.114 5.744-.255 6.47-.82.727-.566 2.076-1.297 2.998-1.626.921-.328 1.45-1.184 1.174-1.903-.276-.718.384-2.107 1.466-3.086 1.083-.98 1.968-1.4 1.968-.933 0 .467.682-.126 1.516-1.316.834-1.191 1.909-1.923 2.388-1.627.48.297 1.533-1.044 2.341-2.979l1.47-3.517 3.152 1.84c1.733 1.013 3.074 2.252 2.979 2.754-.096.502.457 1.266 1.228 1.697.772.432 1.108 1.26.75 1.842-.394.635-.207.78.47.362.627-.388 1.377-.03 1.7.812.318.828.97 1.263 1.45.967.48-.297 1.123.113 1.43.911.305.798 1.116 1.236 1.801.973.685-.263 1.923.2 2.752 1.028.828.828 1.99 1.505 2.584 1.505.593 0 .95.752.794 1.67-.156.92.15 1.739.682 1.822 2.456.386 5.318 1.64 5.318 2.331 0 .42.858.54 1.906.265 1.382-.361 2.222.196 3.056 2.025.632 1.387 1.6 2.522 2.15 2.522.55 0 2.215 1.165 3.701 2.588 2.225 2.131 3.547 2.573 7.489 2.5 2.632-.048 5.684-.372 6.78-.72 1.933-.614 5.845 1.875 4.03 2.564-1.365.519.658 4.67 2.278 4.67.814 0 1.481.435 1.481.966 0 .532.326.859.725.726.399-.133 1.733.766 2.965 1.998 1.788 1.788 2.008 2.52 1.09 3.625-.818.986-.837 1.386-.064 1.386.596 0 1.085 1.305 1.085 2.9 0 2.081.478 2.928 1.692 2.997.93.052 2.997.275 4.592.496 3.244.447 3.642.453 7.734.124 1.926-.155 2.817.181 2.651.998-.14.69 1.037 1.489 2.68 1.817 1.61.322 3.166.972 3.457 1.443.292.472.936.608 1.43.302.496-.306.902-.205.905.226.002.43 1.96.853 4.35.94 2.39.086 4.347-.175 4.347-.579 0-.404 1.305-.772 2.9-.818 1.595-.045 2.9.237 2.9.627s1.088.709 2.417.709c1.33 0 2.417-.318 2.417-.706 0-.389 1.273-.341 2.828.105 3.338.957 3.93.54 3.97-2.8.018-1.373.562-3.167 1.21-3.985 1.375-1.738 5.528-2.27 5.528-.708 0 .588.286.782.636.432.35-.35 1.214-.156 1.921.43.707.587 1.943.814 2.748.506.804-.309 1.462-.14 1.462.375s.687.936 1.526.936c1.965 0 9.218 7.743 8.437 9.007-.327.528-.139.68.417.336.556-.344 1.73.473 2.609 1.815.879 1.341 2.014 2.182 2.522 1.868.509-.314.925-.208.925.236 0 .445 1.713.645 3.806.445 3.231-.308 4.248.09 6.735 2.633 1.61 1.648 3.596 2.996 4.412 2.996.815 0 1.482.363 1.482.806 0 .778.657.962 4.846 1.358 1.07.101 1.803.611 1.629 1.133-.378 1.133-5.508 2.648-5.508 1.627 0-.391-2.175-.81-4.834-.931l-4.834-.221.03 3.19c.029 2.876 2.292 7.42 3.396 6.815 1.3-.711 5.305-.105 4.792.725-.329.532-.09.967.53.967s.879.648.575 1.439c-.304.791-.241 1.351.138 1.245 1.005-.282 5.288 2.158 6.975 3.973 1.734 1.866 2.336 5.912.88 5.912-1.207 0-.82 6.942.437 7.858.458.334 1.17 2.452 1.582 4.706l.75 4.098-4.081-.46c-3.827-.431-4.16-.273-5.341 2.545-.693 1.653-1.309 3.296-1.369 3.65-.06.355-.406.94-.768 1.303-.362.362-.424 1.269-.138 2.014.286.746.013 1.356-.607 1.356s-.881.398-.58.886c.301.487.048 2.118-.563 3.625-.61 1.507-1.2 3.588-1.31 4.624-.11 1.037-.703 2.053-1.32 2.258-.615.206-.874.772-.573 1.258.3.486.06.884-.534.884-.595 0-.84.391-.544.87.295.478-1.093 2.304-3.085 4.058s-3.517 3.528-3.388 3.942c.128.413-1.051 1.701-2.621 2.862s-2.646 2.448-2.391 2.86c.255.413-1.063 1.915-2.93 3.338-1.865 1.424-3.174 2.94-2.909 3.37.266.43-.717 1.726-2.184 2.88-1.468 1.154-2.517 2.318-2.332 2.585.54.78-4.907 6.084-5.728 5.577-.41-.253-1.681.855-2.826 2.463s-2.436 2.704-2.869 2.436c-.432-.267-1.497.598-2.365 1.923-.868 1.324-2.205 2.408-2.972 2.408-.767 0-1.866.883-2.443 1.961s-1.441 1.719-1.92 1.423c-.478-.295-1.348.357-1.933 1.45-.585 1.094-1.455 1.746-1.934 1.45-.478-.295-1.31.286-1.848 1.291-.951 1.778-4.758 3.813-8.426 4.505-.996.187-1.92.429-2.052.536-.133.107-.677.303-1.209.436-.531.133-1.184.35-1.45.484-.266.133-.918.35-1.45.483-.532.133-1.293.348-1.692.477-.399.13-1.051.184-1.45.12-.399-.062-.725.368-.725.957 0 .588-.625.83-1.388.537-.763-.293-1.531-.102-1.706.423-.175.526-1.291 1.029-2.48 1.118-1.188.09-2.16.471-2.16.847 0 .377-1.415 1.021-3.143 1.432-3.96.942-3.83.903-5.559 1.649-3.834 1.654-9.668 3.412-9.668 2.913 0-.307-.584-.074-1.297.518-.714.593-1.584.79-1.934.441-.35-.35-.636-.082-.636.595 0 .698-.629.99-1.45.675-.798-.306-1.45-.17-1.45.303s-1.414 1.196-3.143 1.607c-1.728.411-3.468.827-3.867.923-.399.097-.942.284-1.208.417s-.893.296-1.394.363c-1.905.253-10.655 7.616-10.106 8.504.317.512-.313 1.164-1.4 1.448-1.088.284-2.12 1.452-2.296 2.594-.175 1.142-.826 1.977-1.446 1.854-1.619-.319-2.492 3.207-1.332 5.376.543 1.014.712 2.118.376 2.454-.336.336-.103.61.518.61.62 0 1.128.385 1.128.854 0 .47-1.329.8-2.952.733-2.322-.094-2.857-.486-2.505-1.833.543-2.076-3.031-4.465-3.67-2.454-.844 2.654-1.551 8.174-1.492 11.643.035 2.029-.406 3.626-1 3.626-.586 0-.793.438-.462.973.33.536-.076 1.234-.904 1.552-.829.318-1.284.937-1.012 1.377.271.44-.492 1.49-1.698 2.334-1.205.845-2.213 1.853-2.239 2.242-.11 1.64-1.727 5.581-2.492 6.076-.456.295-1.109 2.688-1.45 5.317-.342 2.63-1.23 5.485-1.973 6.344-.935 1.08-1.162 2.752-.736 5.417.492 3.08.292 3.98-.996 4.474-.887.34-1.392.975-1.123 1.41.86 1.393-3.87 5.965-7.456 7.206-1.907.66-3.376 1.46-3.265 1.777.112.317-.378 1.277-1.089 2.133-.71.856-1.01 2.01-.668 2.566.343.555.163 1.009-.4 1.009-.563 0-1.024.652-1.024 1.45 0 .798-.36 1.45-.802 1.45-.44 0-.767.929-.725 2.063.09 2.404-1.886 2.862-7.658 1.775z" transform="matrix(.4105 0 0 .4105 -110.253 -97.426)"/><path style="fill:none;fill-opacity:1;stroke:#000;stroke-width:3.77953;stroke-dasharray:none;stroke-opacity:1" d="M300.217 454.427c-.537-.647-.69-1.463-.34-1.813.35-.35.18-.636-.38-.636-.557 0-1.242-.87-1.52-1.933-.278-1.064-.329-1.934-.113-1.934.935 0 4.046 3.759 3.535 4.27-.31.31.161.564 1.048.564 1.56 0 1.724-.554 2.038-6.863.153-3.069 3.178-7.916 4.45-7.13.508.315.924.086.924-.509s.435-.812.967-.483c.531.328.966.19.966-.306 0-1.4 5.053-1.064 6.552.435.736.736 1.709 1.11 2.16.83.453-.279 1.042-.153 1.31.28.812 1.314-.888 3.199-3.032 3.36-1.112.084-1.807.5-1.544.925.263.426-.202 1.034-1.034 1.353-.831.32-1.511 1.165-1.511 1.88 0 .713-.622 1.646-1.382 2.071-.76.425-1.424 1.095-1.476 1.488-.26 1.952-1.3 3.57-2.01 3.131-.44-.271-1.077-.044-1.416.505-.34.549-1.022.748-1.517.442-.495-.306-.9-.15-.9.347 0 1.322-4.632 1.103-5.775-.274z" transform="matrix(.4105 0 0 .4105 -110.253 -97.426)"/></g></svg>