<svg width="437.772" height="128mm" viewBox="0 0 115.827 128" xml:space="preserve" xmlns="http://www.w3.org/2000/svg"><path style="fill:none;fill-opacity:1;stroke:#fff;stroke-width:1;stroke-dasharray:none;stroke-opacity:1" d="M265.34 234.129c-.938-1.34-2.573-2.216-4.206-2.252-1.902-.043-2.597-.51-2.414-1.62.153-.926-.615-1.789-1.89-2.122-2.784-.728-3.168-.261-1.313 1.594 1.969 1.968 1.887 2.6-.334 2.6-1.719 0-3.526-2.41-3.132-4.18.097-.438-.288-.509-.856-.158-1.454.9-3.84-1.322-3.204-2.982.292-.758.023-1.379-.597-1.379s-.859-.435-.53-.966c.756-1.224-.524-1.224-2.416 0-.967.624-1.048.942-.242.951 1.7.021 1.51 2.593-.242 3.265-.797.306-1.45.135-1.45-.38s-.883-.937-1.963-.937-2.214-.652-2.52-1.45c-.306-.797-1.38-1.45-2.386-1.45-1.006 0-1.83-.434-1.83-.966s.87-.966 1.933-.966c1.064 0 1.933-.435 1.933-.967s-.42-.967-.936-.967c-.515 0-.686-.652-.38-1.45.306-.797.062-1.45-.544-1.45-.605 0-1.358.672-1.672 1.492-.507 1.32-.781 1.303-2.386-.15-1.363-1.233-1.814-1.315-1.814-.331 0 .961-.286 1.024-1.076.234-.61-.61-.735-1.628-.287-2.351 1.312-2.123 1.127-4.654-.433-5.916-1.207-.976-1.326-.946-.655.167.654 1.085.348 1.211-1.506.625-1.28-.405-4.138-.8-6.353-.878-3.533-.123-7.449-1.59-4.247-1.59.687 0 .99-.63.685-1.424-.314-.82.36-2.088 1.588-2.99l2.135-1.565-2.417.705c-1.329.388-2.978.917-3.664 1.175-.686.258-1.178.09-1.094-.374.362-1.98-.145-3.331-1.041-2.777-.532.329-.967-.08-.967-.91 0-.828.653-1.506 1.45-1.506 1.977 0 1.827-2.26-.277-4.164-1.102-.996-2.557-1.346-4.018-.964-1.598.418-2.081.261-1.598-.52.38-.615.261-1.118-.264-1.118-1.288 0-3.992-2.78-3.992-4.104 0-.587.979-.18 2.175.901 1.196 1.083 3.48 2.419 5.074 2.97 1.595.55 3.628 1.297 4.517 1.658 1.119.455 1.988-.036 2.817-1.592 1.02-1.916.996-2.082-.17-1.122-1.053.868-1.785.825-3.167-.186-1.675-1.224-1.576-1.375 1.453-2.213 2.818-.78 3-1.002 1.374-1.68-1.126-.468-2.008-.38-2.208.22-.183.55-1.406.795-2.716.545-2.475-.473-3.086-1.615-1.416-2.647 1.646-1.017 1.141-3.657-.573-2.999-1.027.394-1.708-.054-2.046-1.346-.279-1.066-.916-1.938-1.417-1.938s-.63-.456-.285-1.013c.428-.693 1.058-.656 1.99.118.75.623 1.37.753 1.379.289.008-.464.436-.191.952.606.515.798.943.985.951.416.02-1.353-4.485-5.26-5.218-4.526-.312.312-.566.038-.566-.608 0-.645 1.087-2.181 2.416-3.413 1.33-1.232 2.41-2.842 2.402-3.578-.012-1.068-.208-1.046-.967.11-.794 1.21-1.05 1.09-1.548-.724-.646-2.36-3.27-3.025-3.27-.83 0 .74-1.17 1.638-2.598 1.997-1.43.359-3.155 1.385-3.836 2.28-1.508 1.984-1.665.3-.305-3.277.547-1.437 1.268-2.34 1.603-2.004.335.334 1.198.12 1.918-.478.982-.815 1.038-1.413.222-2.396-.597-.72-.834-1.967-.525-2.771.344-.896.011-1.462-.859-1.462-.78 0-1.42-.653-1.42-1.45 0-1.62 1.51-1.951 2.391-.526.314.509 1.166.696 1.892.418.727-.28 1.609-.043 1.96.525.35.568 1.156 1.02 1.789 1.003.633-.016.39-.472-.54-1.014s-1.692-1.58-1.692-2.307c0-.727-.544-1.542-1.208-1.811-.914-.371-.862-.731.214-1.479 1.226-.85 1.19-1.077-.253-1.631-1.822-.7-4.65 1.104-4.46 2.843.064.593-.203 2.075-.594 3.293-.835 2.601-2.998 2.284-2.627-.385.14-1.006.358-3.425.486-5.376.282-4.314 1.15-5.342 3.126-3.702.823.683 1.747.991 2.053.685.935-.935-.614-2.618-2.409-2.618-.93 0-2.535-.653-3.567-1.45-1.754-1.356-1.77-1.534-.231-2.731 1.586-1.235 1.463-5.485-.16-5.485-.388 0-.664-3.974-.612-8.83.088-8.362.214-8.876 2.378-9.676 1.883-.696 2.077-1.097 1.1-2.274-.957-1.153-.883-1.545.385-2.032 1.855-.712 4.446 1.172 4.446 3.234 0 1.205.255 1.238 1.511.195 1.347-1.118 1.351-1.343.04-2.077-.809-.452-1.226-1.461-.926-2.241.3-.78.904-1.197 1.343-.926.439.272 1.113-.016 1.498-.638.436-.707.28-.873-.417-.442-1.72 1.063-1.32-1.455.576-3.622.93-1.064 1.178-1.635.55-1.269-.628.366-1.384.273-1.68-.207-.297-.48.327-1.1 1.386-1.376 1.283-.336 1.73-1.018 1.336-2.043-.65-1.695-2.317-2.107-2.317-.573 0 1.522-1.698 1.133-3.587-.824-.951-.984-2.63-2.01-3.733-2.28-1.582-.389-1.965-.063-1.824 1.548.1 1.121-.017 2.386-.257 2.811-.664 1.172-3.165-1.271-3.165-3.092 0-1.94 3.597-5.21 4.867-4.425.5.31.668-.068.372-.84-.295-.77-.131-1.653.365-1.96.497-.307.693-1.656.437-2.997-.38-1.987-.087-2.44 1.58-2.44 1.142 0 2.045-.619 2.045-1.402 0-.77.72-1.804 1.6-2.296.946-.53 1.357-1.524 1.007-2.437-.325-.848-.022-2.112.675-2.808 1.688-1.688.246-5.572-2.318-6.243-1.062-.277-1.93-1.132-1.93-1.899 0-.767.438-1.123.973-.792.536.331 1.659-.082 2.495-.918.836-.837 1.92-1.274 2.409-.972.489.302.889-.3.889-1.337 0-2.575 2.577-3.43 3.197-1.061.268 1.026.093 2.109-.388 2.406-1.335.825-1.045 2.632.337 2.102.667-.256 1.749.107 2.403.808.942 1.009.93 1.535-.06 2.537-1.492 1.507-1.674 8.516-.222 8.505.559-.004 1.518-1.091 2.133-2.416.614-1.325.827-2.41.472-2.41s-.67-1.522-.702-3.382c-.032-1.86.284-3.383.702-3.383 1.85 0 2.625-3.59 1.32-6.107-1.163-2.242-1.138-2.677.199-3.425 1.12-.627 1.37-1.668.927-3.878-.332-1.662-.21-3.022.27-3.022.482 0 1.025-.979 1.208-2.175.182-1.196.865-2.066 1.517-1.933.652.133 1.185-.193 1.185-.725s-.384-.967-.853-.967c-1.317 0-.706-8.984.641-9.434 1.668-.556 1.466-2.165-.271-2.165-1.576 0-1.995-2.448-.57-3.33 1.417-.875.556-3.737-1.202-3.995-1.047-.153-1.611.443-1.611 1.702 0 1.158-.82 2.152-2.037 2.47-1.712.448-1.952 1.055-1.507 3.798.346 2.132.18 3.05-.476 2.643-.627-.387-.593.15.091 1.429.946 1.767.834 2.05-.813 2.05-2.649 0-3.61 1.952-1.262 2.566 2.672.698 2.432 5.159-.279 5.18-1.587.013-1.675.179-.491.927 1.12.709 1.184 1.17.282 2.071-.875.876-1.486.887-2.497.049-.736-.611-1.595-.854-1.91-.54-.314.315-1.021.294-1.571-.046-.64-.395-.238-2.187 1.12-4.98 1.787-3.679 1.902-4.495.738-5.215-1.196-.739-1.194-1.203.014-3.46.767-1.432 1.259-3.635 1.094-4.895-.323-2.468.715-2.96 2.492-1.182.733.732.65-.413-.243-3.383-.744-2.47-1.102-4.491-.796-4.491.305 0 .085-.566-.49-1.259-1.054-1.27-.495-5.507.728-5.507.363 0 .66-1.005.66-2.233 0-2.8 2.27-8.4 3.404-8.4.467 0 .85-.87.85-1.933 0-1.063.34-1.933.756-1.933.89 0 .754-3.65-.224-5.965-.375-.89-.77-2.194-.876-2.9-.107-.706-.516-1.798-.909-2.426-.392-.629-.52-3.13-.281-5.558.237-2.429.027-4.416-.467-4.416-.495 0-.9-1.79-.9-3.979 0-3.71.162-3.948 2.388-3.522 1.313.25 2.175.114 1.917-.304-.258-.418-.01-1.044.552-1.392.562-.347.74-1.519.395-2.604-.417-1.315-.27-1.752.444-1.311.676.417 1.07-.25 1.07-1.812 0-1.36.36-2.474.8-2.474.44 0 .607-1.305.373-2.9-.324-2.211-.05-2.9 1.153-2.9 1.199 0 1.433-.578.973-2.407-.43-1.711-.157-2.579.943-3 .85-.327 1.306-.984 1.012-1.46-.294-.476-.169-.865.278-.865.935 0 3.302-7.483 3.51-11.096.078-1.34.54-2.435 1.027-2.436.487 0 .602-.284.255-.632-.348-.347.246-2.053 1.32-3.79 1.237-2.001 1.586-3.384.954-3.775-1.521-.94-1.19-4.369.421-4.369.865 0 1.202-.566.863-1.45-.306-.797-.183-1.45.272-1.45.456 0 .829-1.304.829-2.9 0-1.594-.383-2.899-.851-2.899-.468 0-.63-1.964-.359-4.365.27-2.4.1-4.608-.38-4.904-.481-.297-.705-1.704-.498-3.126.207-1.423-.039-3.113-.545-3.756-1.378-1.747.089-7.303 1.758-6.662.747.286 1.398-.01 1.447-.657.264-3.46-.369-10.003-1.17-12.11-.729-1.917-.513-2.837 1.058-4.509 1.086-1.155 1.68-2.395 1.32-2.754-.359-.36-.137-.653.493-.653.728 0 .933-.849.562-2.326-.32-1.28-.032-3.346.642-4.592.674-1.245 1.137-3.492 1.028-4.993-.136-1.881.156-2.509.942-2.023.792.489.973.067.595-1.38-.3-1.147-.224-2.085.17-2.085 1.214 0 1.667-6.361.669-9.387-.504-1.528-.18-2.59 1.138-3.717 1.217-1.043 1.71-2.45 1.448-4.145-1.049-6.8-1.333-14.648-.53-14.648.49 0 .89-.652.89-1.45 0-.797-.589-1.45-1.308-1.45-1.704 0-.582-4.873 1.47-6.389.936-.69 1.399-2.48 1.299-5.023-.085-2.172.257-4.204.76-4.515.504-.312.7-1.13.435-1.818-.264-.69-.044-2.4.489-3.802.533-1.401.6-2.776.15-3.054-.45-.279-.884-4.1-.964-8.492-.177-9.725-.504-13.086-1.358-13.94-.358-.358-.651-2.147-.651-3.976 0-2.56.334-3.197 1.45-2.77.797.307 1.45.136 1.45-.38 0-.514.543-.827 1.208-.694.664.133 1.1-.302.966-.966-.133-.665.28-1.209.918-1.209.903 0 .903-.257 0-1.16-1.357-1.357-1.565-3.07-.275-2.274.486.3 1.067 0 1.292-.668.318-.944.776-.91 2.06.15.908.749 1.43 1.94 1.158 2.646-.27.706-.013 1.18.572 1.053 1.209-.261 2.956 4.943 2.275 6.778-.246.664-.074 1.208.383 1.208.458 0 1.105 1.087 1.438 2.416.334 1.33 1.25 2.417 2.038 2.417 1.628 0 1.918 1.518.462 2.418-.645.4-.638 1.217.023 2.451.707 1.323.641 2.412-.23 3.808-.975 1.56-.979 2.344-.022 3.875.66 1.056 1.199 2.492 1.199 3.19s.517 1.787 1.15 2.42c.632.632 1.243 1.698 1.358 2.368.856 5.02 1.405 6.876 2.384 8.056.618.744.887 1.969.599 2.721-.29.752-.235 1.658.12 2.014.356.355.652 1.376.66 2.269.008 1.241.901 1.623 3.79 1.623 4.318 0 4.976.97 3.346 4.928-.635 1.543-1.068 3.177-.964 3.632.105.454-.256 1.364-.802 2.022-.546.657-.758 1.43-.472 1.715.536.536-4.319 2.16-5.612 1.877-.398-.087-.724.302-.724.865s-.39.783-.866.49c-.476-.295-1.125.142-1.443.97-.318.828-.958 1.27-1.423.983-.464-.287-.757 1.099-.65 3.08.107 1.982-.396 4.581-1.117 5.778-.722 1.196-.887 2.174-.367 2.174 1.421 0 2.39 6.581 1.183 8.036-1.136 1.367-.438 5.496.929 5.496.47 0 .854.624.854 1.385 0 1.565-3.327 2.93-4.848 1.99-.55-.34-.919-.26-.82.178.1.439-.325 2.022-.942 3.518-.618 1.497-1.123 3.316-1.123 4.042 0 .727-1.31 2.254-2.91 3.394-1.602 1.14-2.715 2.392-2.474 2.783.79 1.277-1.571 8.741-2.699 8.53-.604-.113-.969.405-.809 1.15.294 1.37 1.35 8.868 1.375 9.76.055 1.988-.445 2.843-1.943 3.318-1.097.349-1.812 1.655-1.959 3.582-.264 3.467-.954 4.933-2.013 4.278-.403-.249-.699 1.297-.658 3.435.047 2.458.63 4.2 1.584 4.733.94.526 1.432 1.958 1.304 3.798-.112 1.625.118 2.954.51 2.954.394 0 1.212 1.088 1.817 2.417.606 1.329.768 2.416.36 2.416-.406 0-.805.87-.885 1.933-.08 1.063.212 1.933.648 1.933 1.163 0 1.872 3.454 1 4.865-.412.667-.324 2.435.197 3.93.78 2.236.592 3.096-1.065 4.875-1.107 1.188-2.012 2.73-2.012 3.428 0 .697-.342 1.267-.76 1.267-.884 0-1.147 2.1-1.294 10.331-.073 4.122-.522 6.14-1.443 6.494-.735.282-1.336 1.18-1.336 1.993 0 .815-.663 1.48-1.474 1.48-1.9 0-3.304 3.716-2.666 7.057.313 1.638.076 2.61-.637 2.61-.679 0-.824.486-.361 1.208.426.664.872 2.078.99 3.141.118 1.063.391 3.595.607 5.626.215 2.032.883 4.185 1.483 4.785.6.6 1.091 1.45 1.091 1.889 0 .744-4.702 3.095-5.823 2.91-.278-.045-.413 1.588-.299 3.63.14 2.513-.397 4.409-1.666 5.872-1.423 1.641-1.613 2.473-.79 3.464.665.802.707 1.305.11 1.305-.535 0-1.2.87-1.478 1.934s-.111 1.69.37 1.393c.483-.298.877.162.877 1.022s-.43 1.299-.955.974c-.548-.339-.71.05-.38.91.316.824.187 1.5-.288 1.5-.474 0-.862.87-.862 1.933 0 1.063.313 1.933.695 1.933.383 0 .46 1.196.17 2.658-.926 4.688-.825 7.434.362 9.838 1.333 2.7.875 3.936-1.457 3.935-1.366 0-1.635 1.024-1.635 6.237 0 5.731.184 6.283 2.26 6.806 1.82.459 2.04.835 1.126 1.937-.66.796-.797 1.89-.327 2.618 1.016 1.573 1.218 7.534.255 7.534-.394 0-.489.87-.21 1.933.277 1.063 1.241 1.933 2.14 1.933 3.097 0 4.82 2.18 3.8 4.81-.51 1.316-1.23 1.963-1.602 1.439-.771-1.09-7.925-1.355-7.925-.294 0 1.009 1.914 2.038 4.01 2.157.998.057 1.78.47 1.738.917-.043.447.713 1.417 1.679 2.156 1.53 1.17 1.569 1.469.306 2.314-.798.533-1.015.994-.483 1.024.531.029-.26.718-1.76 1.53-2.62 1.42-2.666 1.57-1.186 3.828.847 1.293 1.159 2.35.693 2.35-.466 0-.738 2.04-.603 4.533.146 2.71-.318 5.39-1.153 6.664-.895 1.367-1.156 3.086-.727 4.794.473 1.885.345 2.463-.44 1.978-.651-.402-1.107-.064-1.107.823 0 .828-.435 1.506-.967 1.506-.531 0-.966.653-.966 1.45 0 .798-.461 1.45-1.024 1.45s-.755.435-.426.967c.328.531.197.966-.292.966-.49 0-.682 1.088-.428 2.417.254 1.329.846 2.416 1.316 2.416.47 0 .854.684.854 1.52 0 1.691-2.389 4.47-3.17 3.687-.276-.275-.297 1.018-.046 2.875.356 2.641.047 3.593-1.42 4.379-1.032.552-2.151.729-2.487.393-.566-.566-.975 1.459-.87 4.303.025.665-.59 1.208-1.366 1.208-1.968 0-4.733 2.912-3.526 3.713.529.35.914 2.67.856 5.156-.059 2.486.28 4.443.754 4.35.871-.172 1.797 2.956 1.988 6.717.106 2.098 2.156 2.499 3.323.65.356-.563 1.844-1.022 3.305-1.019 2.36.005 2.659.363 2.659 3.188 0 1.75-.544 3.402-1.209 3.672-.88.358-.913.706-.117 1.289.6.439.984 2.127.853 3.752-.17 2.104.553 3.84 2.52 6.04 2.736 3.064 2.832 3.089 11.954 3.089 5.487 0 9.197.39 9.197.966 0 .532.326.915.724.852 2.534-.4 5.94.329 7.548 1.615 1.82 1.454 1.809 1.48-.345.886-1.221-.337-2.834-.104-3.583.518-1.157.96-1.082 1.432.496 3.126 1.022 1.097 1.59 2.431 1.26 2.965-.35.564-.11.667.571.245.645-.398 2.234-.84 3.533-.983l2.361-.259.015 18.474c.008 10.257.431 19.119.952 19.924.624.966.942 1.047.951.241.022-1.799 10.274-1.643 10.968.167.323.841 1.3 1.173 2.52.854 2.143-.56 2.784 1.107.784 2.04-.966.451-.966.677 0 1.128 2.237 1.044 1.232 2.406-1.45 1.965a143.68 143.68 0 0 0-3.312-.516c-.36-.044-.853-.841-1.096-1.771-.404-1.548-.451-1.541-.554.076-.09 1.427-.643 1.652-2.858 1.166-1.909-.42-3.137-.132-4.03.944-1.042 1.256-1.046 1.492-.022 1.251.704-.165 1.618.966 2.065 2.555 1.027 3.648.507 4.141-1.438 1.365zm.8-8.286c.65-1.696-1.845-1.582-3.282.15-.948 1.142-.8 1.367.823 1.245 1.09-.082 2.196-.71 2.459-1.395zm-11.757-3.218c-.283-1.084-.731-1.755-.995-1.491-.523.523.4 3.463 1.088 3.463.233 0 .19-.887-.093-1.972zm-14.591-2.104c-.694-.694-1.144-.75-1.144-.145 0 1.29 1.143 2.433 1.788 1.788.275-.274-.015-1.014-.644-1.643zm4.782-4.954c-.592-.713-.767-1.606-.39-1.984.379-.378-.073-.395-1.003-.039-1.603.616-1.602.716.03 1.954 2.213 1.68 2.72 1.705 1.363.069zm-9.792-3.052c1.027-1.239.745-1.45-1.933-1.45-2.679 0-2.961.211-1.934 1.45.662.797 1.532 1.45 1.934 1.45.401 0 1.27-.653 1.933-1.45zm19.455-.186c.901-1.111.939-1.403.118-.91-.679.408-1.208.253-1.208-.354 0-.595-.4-.834-.889-.532-.489.302-1.576-.138-2.416-.978-.84-.84-1.541-1.17-1.558-.734-.016.437-.425.118-.908-.709-.484-.826-.722-2.348-.528-3.383.193-1.034.385-2.232.425-2.662.041-.43.51-.513 1.04-.185.532.329.967.172.967-.35 0-.52 1.28-1.227 2.845-1.57 1.938-.427 2.675-1.067 2.313-2.01-.644-1.68-5.289-1.834-6.894-.23-1.575 1.575-3.94-1.666-3.842-5.264.076-2.76 1.188-3.55 2.043-1.45.27.665.43.012.353-1.45-.076-1.462-.697-2.658-1.378-2.658-.681 0-1.239-.421-1.239-.936 0-.515-.652-.686-1.45-.38-.797.306-1.45 1.619-1.45 2.917 0 1.299-.706 3.727-1.569 5.395-1.197 2.315-1.315 3.44-.5 4.746.699 1.117.761 2.48.18 3.926-.488 1.217-.922 1.779-.964 1.247-.042-.531-.504-.314-1.028.484-.71 1.082-1.142 1.156-1.702.292-.453-.697-1.271-.835-2.061-.347-1.007.622-.833.961.75 1.464 1.134.36 2.061 1.264 2.061 2.008 0 .812.586 1.13 1.461.794 1.08-.414 1.313-.09.894 1.239-.497 1.576-.413 1.56.678-.134 1.298-2.016 1.411-2.431 1.653-6.098.081-1.228.55-1.984 1.04-1.68.492.304 1.094-.214 1.338-1.151.297-1.136.522-.818.678.955.277 3.17.327 3.363 1.74 6.766.679 1.636 1.84 2.658 3.022 2.658 1.055 0 2.48.636 3.165 1.413 1.55 1.757 1.261 1.772 2.82-.149zm-32.447-7.256c.203-1.382-.05-1.46-1.6-.492-2.265 1.414-2.408 2.87-.24 2.447.88-.172 1.708-1.052 1.84-1.955zm8.02-.668c1.105-.7 1.105-.963 0-1.662-.72-.457-1.746-.838-2.278-.846-.531-.008-.966-.522-.966-1.142 0-.62-.294-1.422-.653-1.78-.684-.685-.495.484.666 4.115.759 2.372 1.248 2.571 3.231 1.315zm-1.163-5.743c-.881-.973-1.275-2.13-.875-2.571.4-.44.155-.471-.544-.067-1.013.584-.933 1.108.391 2.571.915 1.01 1.88 1.837 2.146 1.837s-.237-.796-1.118-1.77zm-12.053-1.339c-.694-.693-1.144-.75-1.144-.145 0 1.29 1.143 2.433 1.788 1.788.275-.274-.015-1.014-.644-1.643zm4.121-2.773a1.08 1.08 0 0 0-1.481-.35 1.08 1.08 0 0 0-.35 1.482c.311.504.978.66 1.482.35a1.08 1.08 0 0 0 .35-1.482zm12.58-1.25c1.467-.185 3.261-1.978 2.778-2.775-.241-.399-.05-.725.424-.725s.862-.614.862-1.365c0-1.012-.556-1.153-2.156-.545-1.185.451-2.418.558-2.738.237-.32-.32-.583-.075-.583.545s-.524 1.02-1.164.886c-.64-.133-1.204.411-1.252 1.209-.049.797-.612 1.34-1.253 1.208-.64-.133-1.164.419-1.164 1.226 0 1.11.65 1.316 2.658.843 1.462-.344 3.076-.679 3.587-.743zm-13.012-4.467c0-.531-.192-.966-.426-.966-.235 0-.695.435-1.024.966-.328.532-.137.967.426.967s1.024-.435 1.024-.967zm6.293-2.884c-.78-1.26 1.63-1.734 4.581-.9 3.174.895 3.44.405.605-1.113-3.218-1.722-6.646-1.816-6.646-.183 0 .866-.567 1.203-1.45.864-.862-.33-1.45-.009-1.45.793 0 .742.761 1.521 1.692 1.733 2.076.471 3.345-.097 2.668-1.194zm24.638-2.067c0-1.98-1.62-2.03-3.68-.114-.72.67-1.818.958-2.44.64-.621-.316-.05.302 1.27 1.374 2.665 2.165 4.85 1.31 4.85-1.9zm-37.697-4.174c0-.235-.435-.695-.967-1.024-.531-.328-.966-.136-.966.427s.435 1.023.966 1.023c.532 0 .967-.192.967-.426zm-.711-4.985c.871-.87-.328-3.357-1.323-2.742-.476.294-.866 1.161-.866 1.927 0 1.424 1.152 1.853 2.189.815zm12.31-2.149c0-.83-.586-1.121-1.529-.76-.84.323-1.954.587-2.473.587-.52 0-.734.342-.476.76.809 1.308 4.478.827 4.478-.587zm-15.465-15.198c0-.176-.84-.256-1.867-.18-1.026.078-1.664.467-1.418.865.408.66 3.285.061 3.285-.685zm-1.81-5.031c1.202-1.533 1.168-1.567-.365-.365-.93.73-1.692 1.49-1.692 1.692 0 .795.794.283 2.057-1.327zm5.095-1.367c-.246-.398-1.086-.478-1.866-.179-1.968.755-1.773 1.21.447 1.044 1.026-.078 1.665-.467 1.419-.865zm-7.605-7.525c-.356-.576-1.052-.797-1.547-.49-.495.305-.9.022-.9-.63 0-.651-.325-.859-.723-.46-.398.397.114 1.335 1.138 2.083 2.003 1.465 3.083 1.197 2.032-.503zm-6.896-11.487c.274-.443-.135-.805-.91-.805-.773 0-1.406.362-1.406.805 0 .443.409.806.91.806.5 0 1.133-.363 1.406-.806zm6.076-3.242c-.308-.77-.537-.542-.584.584-.042 1.02.187 1.59.508 1.269.321-.321.356-1.155.076-1.853zm7.236-17.44c-.718-.718-.843-.34-.423 1.267.342 1.307.78 1.745 1.021 1.021.233-.697-.037-1.727-.598-2.289zm-4.996-21.422c0-.209-.675-.639-1.5-.955-.86-.33-1.248-.168-.91.38.568.918 2.41 1.358 2.41.575zm4.833-7.352a.97.97 0 0 0-.967-.967.97.97 0 0 0-.966.967.97.97 0 0 0 .966.966.97.97 0 0 0 .967-.966zm-2.9-4.88c0-1.745-1.742-1.757-2.197-.015-.339 1.295-.082 1.696.857 1.336.737-.283 1.34-.877 1.34-1.32zm12.689-8.41c1.202-1.534 1.168-1.568-.365-.366-.93.73-1.692 1.491-1.692 1.692 0 .795.794.283 2.057-1.327z" transform="matrix(.26458 0 0 .26458 -4.46 65.095)"/></svg>