<svg width="437.772" height="128mm" viewBox="0 0 115.827 128" xml:space="preserve" xmlns="http://www.w3.org/2000/svg"><path style="fill:none;fill-opacity:1;stroke:#000;stroke-width:3.77953;stroke-dasharray:none;stroke-opacity:1" d="M320.78 233.879c-.623-1.163-1.527-1.871-2.01-1.573-.93.575-4.111-4.748-3.314-5.545.846-.846-2.652-3.097-5.007-3.223-1.268-.067-2.306.158-2.306.501 0 .344-1.088.625-2.417.625-1.33 0-2.417-.349-2.417-.774 0-.425-.49-.665-1.088-.532-.598.133-1.287-.302-1.53-.966-.244-.665.054-1.209.661-1.209s.834-.438.503-.974c-.331-.535.076-1.233.904-1.551.828-.318 1.263-.97.967-1.45-.297-.48.138-1.133.966-1.45.829-.318 1.264-.97.967-1.45-.296-.48.139-1.133.967-1.45.828-.319 1.265-.968.971-1.444-.294-.476-.074-.866.489-.866s1.024-.652 1.024-1.45c0-.798.435-1.45.967-1.45.531 0 .966-.653.966-1.45 0-.798.461-1.45 1.024-1.45s.753-.439.422-.974c-.33-.536.076-1.234.905-1.552.828-.318 1.263-.97.966-1.45-.296-.48.139-1.132.967-1.45.829-.318 1.265-.967.971-1.443-.294-.476-.125-.866.376-.866 2.066 0 1.826-3.885-.388-6.273-1.26-1.36-2.195-2.74-2.076-3.065.12-.326-.762-.954-1.958-1.397-1.345-.497-2.175-.434-2.175.165 0 .614-.741.574-2.017-.109-1.109-.594-2.233-.862-2.498-.597-.746.746-4.186-2.527-4.186-3.981 0-.711-.439-1.022-.974-.69-.536.33-1.221-.044-1.524-.833-.371-.967-1.393-1.272-3.135-.936-3.446.664-5.382 1.092-5.97 1.321-.265.104-.809.137-1.208.074-.398-.063-.725.32-.725.852s-1.522.967-3.383.967c-2.037 0-3.288-.44-3.143-1.106.133-.609-1.229-1.506-3.026-1.994-1.797-.488-4.228-1.517-5.402-2.286-1.9-1.244-2.297-1.211-3.627.302-.82.935-1.792 2.682-2.158 3.882-.508 1.668-1.217 2.082-3.01 1.757-1.29-.234-2.948.177-3.685.914-.737.737-1.609 1.07-1.938.741-.33-.33-.598-.186-.598.319 0 .504-1.088 1.007-2.417 1.117-1.33.11-2.417-.154-2.417-.587 0-.909-10.639-1.183-12.085-.312-1.865 1.123-3.384.937-3.384-.415 0-.751-.901-1.365-2.003-1.365-3.61 0-5.757-3.774-3.304-5.81 1.066-.884 1.153-1.62.366-3.092-.569-1.062-.843-2.659-.61-3.549.242-.929-.543-2.346-1.847-3.33-1.249-.941-2.27-1.256-2.27-.7 0 1.497-3.513 1.228-5.133-.392-.773-.772-1.65-1.158-1.951-.858-.873.873-.395-3.907.512-5.118.508-.678.235-1.32-.716-1.685-.845-.324-1.265-1.027-.934-1.563.33-.535.14-.973-.422-.973-.563 0-1.024-.845-1.024-1.877 0-2.322-1.553-3.34-5.318-3.484-1.769-.068-2.796-.58-2.634-1.315.146-.661-.184-.925-.732-.586-.549.34-1.258-.061-1.576-.89-.317-.828-.967-1.265-1.443-.97-.476.294-.866.074-.866-.49 0-.562-.797-1.023-1.772-1.023s-2.099-.326-2.498-.725c-.398-.4-1.232-.727-1.853-.73-.62-.002-1.152-1.446-1.182-3.211-.03-1.764-.503-3.502-1.05-3.863-1.375-.905-3.234-6.613-2.442-7.496.355-.397.124-.421-.514-.055-.65.373-1.571-.103-2.096-1.084-.515-.962-1.885-1.82-3.045-1.908-2.19-.165-4.986-3.076-4.19-4.362.47-.762-.924-1.07-3.65-.807-.865.084-1.83-.519-2.145-1.339-.315-.82-1.238-1.49-2.053-1.49-.814 0-1.48-.436-1.48-.967 0-1.407-5.55-1.188-6.128.241-.375.93-.505.917-.564-.057-.042-.696-.493-1.007-1.003-.692-.952.588-4.862-1.226-5.986-2.778-.346-.477-2.244-.966-4.218-1.086-1.974-.12-3.959-.816-4.411-1.548-.453-.732-1.274-1.331-1.825-1.331-.551 0-.893-.357-.76-.793.133-.437-.53-1.225-1.47-1.752-.943-.527-1.46-1.366-1.152-1.865.308-.5-.31-.908-1.373-.908-1.064 0-2.15-.35-2.415-.78-.265-.428-1.992-.603-3.837-.387-2.347.274-3.507.973-3.86 2.327-.28 1.064-.971 1.648-1.539 1.297-.567-.35-1.032-.177-1.032.387 0 1.51-2.48 1.243-3.858-.416-.657-.792-1.69-1.125-2.294-.74-1.583 1.008-6.416.89-6.416-.157 0-.487-.273-.614-.606-.28-.333.333-1.747.046-3.142-.638-1.395-.685-3.733-1.128-5.195-.986-1.462.141-2.659-.152-2.659-.651 0-.5-.524-.8-1.164-.668-.64.133-1.222-.193-1.292-.725-.07-.531-.463-1.728-.873-2.658-.41-.931-.513-2.296-.23-3.033.36-.939-.04-1.196-1.335-.857-1.14.298-2.078-.112-2.446-1.07-.328-.856-1.055-1.272-1.614-.926-.643.397-.821-.123-.484-1.412.487-1.865.203-2.009-3.285-1.662-2.57.256-3.98-.04-4.311-.903-.271-.706-1.295-1.074-2.275-.818-1.056.277-2.701-.454-4.04-1.793-1.243-1.243-2.806-2.134-3.474-1.98-.667.153-1.214-.202-1.214-.788 0-.587-.377-.833-.837-.549-1.103.682-4.206-2.772-3.303-3.675.384-.384-.113-.386-1.105-.006-1.197.46-2.212.13-3.024-.98-.673-.92-1.583-1.534-2.023-1.366-.44.169-1.373-.89-2.074-2.352-.7-1.463-1.711-2.659-2.245-2.659-.535 0-.774-.326-.533-.725.54-.89-1.337-2.624-2.983-2.755-2.767-.222-3.052-.465-2.436-2.079 1.613-4.224 5.053-5.854 8.478-4.018.532.285 1.511.435 2.176.334a374.67 374.67 0 0 1 2.042-.304c1.49-.216.711-5.394-1.052-7.002-1.7-1.549-2.068-6.654-.48-6.654.446 0 .543-.435.215-.967-.329-.532-.137-.967.426-.967s.915-.543.782-1.208c-.133-.665.314-1.096.994-.958.68.138 1.486-.403 1.793-1.202.369-.961 1.304-1.264 2.768-.897 1.216.305 2.514.063 2.885-.537.491-.794 1.09-.75 2.198.163 1.345 1.11 1.393 1.013.415-.823-.909-1.706-.821-2.189.49-2.692 1.675-.643 3.137.864 3.22 3.32.033.941.846.478 2.315-1.319 1.246-1.523 2.427-2.324 2.624-1.78.198.544 1.23 1.137 2.293 1.319 1.686.288 1.898-.135 1.66-3.295-.163-2.145.157-3.626.782-3.626.58 0 .8-.413.488-.918-.312-.505.315-1.39 1.393-1.968 1.079-.577 1.961-1.662 1.961-2.41 0-.75.967-2.039 2.149-2.867 1.182-.828 1.725-1.519 1.208-1.536-.517-.016-.21-.585.682-1.264 1.061-.806 1.336-1.697.794-2.573-.587-.951.598-2.722 4.082-6.098 2.898-2.808 5.02-5.76 5.18-7.205.147-1.347.783-2.767 1.414-3.156.85-.526.808-.82-.164-1.145-.72-.24-1.907.162-2.638.893-.732.731-1.785 1.178-2.342.992-1.786-.595-1.556-3.606.354-4.628 1.017-.544 1.85-1.37 1.85-1.837 0-1.234-3.212-.568-3.654.758-.206.618-1.209 1.124-2.228 1.124-1.414 0-1.853-.686-1.853-2.9 0-1.595.435-2.9.967-2.9s.967-.523.967-1.16c0-.903-.258-.903-1.16 0-.639.637-2.053 1.142-3.143 1.12-1.731-.034-1.585-.379 1.16-2.729 1.729-1.48 3.143-3.202 3.143-3.828 0-.626.326-1.138.725-1.137.78 0 .804-7.924.028-9.313-.258-.462-.57-4.102-.694-8.09-.356-11.47-.355-11.467-2.787-12.077-2.18-.547-2.467-3.15-.294-2.667.599.133 1.088-.247 1.088-.843 0-.72.407-.772 1.209-.156.82.631 1.675.425 2.658-.639 1.59-1.72 2.116-5.855.745-5.855-.472 0-.59-.435-.261-.966.328-.532.11-.967-.484-.967s-.812-.435-.483-.967c.329-.532.111-.967-.483-.967-.595 0-.842-.387-.55-.86.293-.474-.551-1.572-1.876-2.44-3.025-1.982-3.38-5.84-.45-4.91 1.076.342 1.895.262 1.819-.176-.077-.44-.058-1.016.04-1.282.602-1.614.399-8.702-.25-8.702-.43 0-.512-.434-.184-.966.329-.532-.065-.967-.875-.967s-1.946-.882-2.523-1.96c-.577-1.079-1.413-1.736-1.858-1.461-1.19.735-2.509-1.486-2.85-4.796-.324-3.14-1.824-5.569-2.992-4.847-.4.248-1.467-.366-2.37-1.364-1.097-1.211-1.295-2.03-.598-2.461.576-.356.814-1.022.531-1.48-.283-.458-.066-1.11.483-1.45.55-.34.746-1.026.438-1.525-.31-.5.228-1.231 1.192-1.625 1.896-.775 2.853-3.134 1.27-3.134-.53 0-.966-.87-.966-1.934 0-1.063.275-1.933.612-1.933 1.146 0 4.184 4.113 3.662 4.958-.287.463-.086.842.446.842s1.24-.442 1.574-.982c.334-.54.967-.76 1.406-.49.44.272 1.05-.16 1.356-.96.307-.799 1.114-1.34 1.794-1.202.813.165 1.14-.657.957-2.408-.153-1.462.173-2.659.725-2.659s.894-.544.762-1.208c-.133-.665.302-1.1.966-.967 1.31.262 1.379.099 1.62-3.867.09-1.463-.257-2.659-.77-2.659-.511 0-.666-.264-.344-.586.323-.323-.236-1.47-1.24-2.548-1.006-1.079-2.1-3.197-2.431-4.707-.332-1.51-.897-2.648-1.257-2.528-1.464.488-1.016-1.353.762-3.13 1.06-1.06 2.152-1.488 2.474-.968.316.513.265.932-.115.932s.03.797.912 1.77c.881.974 1.275 2.131.875 2.572-.4.441-.272.543.286.227 1.284-.728 3.82.798 3.82 2.3 0 .626.87 1.62 1.934 2.21 2.39 1.325 3.406 2.672 2.78 3.685-.262.424.419.771 1.514.771 1.125 0 1.99.63 1.99 1.45 0 .798-.652 1.45-1.45 1.45-.797 0-1.45.762-1.45 1.692 0 1.203.772 1.692 2.67 1.692h2.67l-.284-6.284c-.157-3.456-.364-6.975-.46-7.82-.188-1.637-2.135-3.836-3.368-3.802-1.114.03-.899-1.9.222-1.995.532-.046 1.492-.518 2.133-1.05.642-.533 1.62-.688 2.175-.344.556.343 1.01.137 1.01-.458 0-.594.387-.841.86-.548.474.292 1.572-.552 2.44-1.877.868-1.325 2.267-2.409 3.11-2.409 1.014 0 1.328-.528.93-1.566-.441-1.15-.146-1.456 1.105-1.152.938.229 2.467-.371 3.398-1.333.93-.962 1.459-1.75 1.174-1.75-.284 0 .026-.978.69-2.175.663-1.196 1.113-2.501 1-2.9-.113-.399.255-.725.818-.725.564 0 .786-.386.494-.858-.657-1.064 1.806-3.23 2.68-2.357.35.35.637.103.637-.548 0-.652.435-.917.966-.588.532.329.967.163.967-.368 0-.532 1.197-.856 2.659-.72 1.462.134 3.782-.127 5.156-.58 2.046-.676 2.498-1.431 2.498-4.171 0-1.84-.308-3.345-.685-3.345-.377 0-.685-1.088-.685-2.417 0-1.33.288-2.417.639-2.417.351 0 .712-.762.8-1.692 1.075-11.205 1.587-14.354 2.42-14.878.54-.339.7-1.072.355-1.63-.64-1.034 3.76-6.134 4.582-5.312.25.25.734-.429 1.077-1.508.342-1.08 2.122-2.505 3.955-3.168 1.833-.663 3.333-1.698 3.333-2.301 0-.603 1.214-2.178 2.699-3.501l2.7-2.405 4.793 1.687c2.636.927 6.382 1.72 8.324 1.761 3.122.067 3.654-.279 4.597-2.982.586-1.681.86-3.262.61-3.512-.669-.67 3.91-4.065 5.482-4.065.74 0 1.892.543 2.56 1.208.794.791 4.283 1.209 10.103 1.209 8.506 0 8.986-.115 11.152-2.662 1.245-1.463 2.637-2.43 3.094-2.148.456.282 1.309-.381 1.894-1.475.585-1.093 1.431-1.76 1.88-1.482.45.277 1.067-.146 1.372-.94.305-.795 1.184-1.445 1.954-1.445s1.545-.402 1.722-.894c.178-.492.975-1.036 1.773-1.209.797-.172 1.722-.686 2.054-1.142.332-.455 1.95-.934 3.593-1.063 1.644-.13 3.656-.789 4.472-1.466.815-.676 1.482-.96 1.482-.628 0 .33.801-.16 1.78-1.09.98-.931 1.607-2.019 1.394-2.417-.213-.4.1-.726.694-.726s.812-.435.483-.966c-.329-.532-.212-.967.259-.967.47 0 .675-1.233.454-2.74-.364-2.48-.132-2.739 2.452-2.739 2.378 0 2.77.323 2.348 1.935-.501 1.916-.482 1.917 1.972.08 1.362-1.02 2.306-2.031 2.097-2.248-.767-.795 1.825-2.99 3.531-2.99.967 0 2.069-.502 2.448-1.115.412-.667.267-.855-.36-.468-.577.357-1.314.219-1.639-.306-.35-.568.799-.903 2.834-.826 1.883.07 3.423.4 3.423.733 0 .332.973.678 2.161.767 1.189.09 2.314.62 2.5 1.179.186.558.718.781 1.182.495.852-.528 4.264 5.01 4.185 6.793-.09 2.034-1.587 4.35-2.81 4.35-.702 0-2.142 1.1-3.2 2.444-1.056 1.345-2.284 2.362-2.728 2.261-.443-.1-2.04.325-3.546.947-1.507.621-3.138.883-3.626.582-.487-.3-.885-.159-.885.316 0 .865-.825 1.092-5.318 1.467-1.329.11-2.417.745-2.417 1.41 0 .664-.46 1.208-1.023 1.208-.564 0-.755.435-.427.967.329.532.137.967-.426.967s-1.024.621-1.024 1.38c0 .76-.684 2.066-1.52 2.901-.835.836-1.29 1.52-1.01 1.52 1.733 0-4.958 5.049-7.02 5.296-1.394.168-2.426.785-2.293 1.372.133.586-.194 1.066-.725 1.066-.532 0-.967.652-.967 1.45 0 .798-.435 1.45-.967 1.45s-.967.653-.967 1.45c0 .798-.46 1.45-1.024 1.45-.563 0-.755.436-.426.967.329.532.111.967-.483.967-.595 0-.853.37-.574.82.279.452-.365 1.757-1.431 2.901s-1.595 2.094-1.175 2.11c.42.018-.082.67-1.114 1.45-1.032.782-1.622 1.42-1.311 1.42.31 0 .122 1.85-.42 4.11-.541 2.26-1.111 4.978-1.266 6.042-.156 1.063-.352 1.933-.438 1.933-.085 0-.332 1.523-.549 3.384-.741 6.367-.84 6.768-1.655 6.768-.449 0-.547.435-.219.967.329.531.111.966-.483.966-.595 0-.84.39-.546.866.294.476-.12 1.116-.919 1.423-.8.307-1.34.951-1.203 1.432.138.48-.946 2.23-2.408 3.886-1.462 1.656-2.659 3.45-2.659 3.987 0 .536-.46.975-1.023.975-.564 0-.755.435-.427.967 1.21 1.957 7.389.382 9.374-2.39.696-.972 2.137-.05 2.349 1.503l.241 1.777c.067.489 1.457 1.183 3.09 1.542 1.97.432 2.797 1.098 2.459 1.979-.28.73-.082 1.592.44 1.915.523.323.87 1.098.77 1.723-.099.624.325 2.36.942 3.857.617 1.497 1.121 3.038 1.121 3.424 0 .386 1.927 2.593 4.28 4.904 2.355 2.31 4.303 4.902 4.328 5.76.026.858.205 2.966.398 4.686.267 2.384-.076 3.261-1.442 3.695-.985.313-1.541.972-1.236 1.466.305.493.168.897-.305.897-.472 0-.824 2.937-.782 6.526.073 6.217.214 6.601 2.977 8.125 1.595.88 3.226 1.398 3.625 1.152.4-.247.726.038.726.632 0 .595.47.79 1.045.435.628-.388.955.072.818 1.152-.454 3.594 3.39 9.07 5.802 8.266.693-.231 1.644.177 2.115.906.714 1.109 1.01 1.089 1.807-.124.523-.797.958-1.07.966-.607.008.464.559.394 1.224-.156 1.014-.84 4.133-.842 12.085-.008.664.07 1.208.38 1.207.69-.002 1.229 7.872.257 9.444-1.166 1.993-1.802 12.941-1.693 13.551.136.206.617.772.877 1.259.576.486-.3.884-.03.884.601 0 .803 1.195.957 3.975.512 3.867-.618 7.214.643 6.174 2.326-.256.413.633 1.47 1.975 2.35 1.342.88 2.212 1.967 1.934 2.417-.279.45.591 1.538 1.933 2.417 1.342.88 2.212 1.967 1.934 2.417-.279.45.592 1.538 1.933 2.417 1.342.879 2.212 1.967 1.934 2.417-.278.45.592 1.538 1.934 2.417 1.341.879 2.18 2.017 1.864 2.53-.62 1.001.557 1.615 4.38 2.284 1.33.233 2.418.489 2.418.569 0 .08.763.292 1.696.47.933.179 2.238-.417 2.9-1.323 1.349-1.846 7.026-2.613 7.975-1.078.338.546.982.766 1.433.487.45-.278 1.927-.084 3.283.43 1.598.608 2.669.605 3.048-.008.321-.52.96-.714 1.418-.43.458.282 1.11.065 1.45-.484.34-.55 1.123-.686 1.741-.303 1.525.942 4.543 1.11 4.543.254 0-.908 3.593-1.837 4.314-1.115.924.923 4.387.906 4.387-.022 0-.474.39-.621.866-.327s1.135-.17 1.466-1.03c.478-1.247 1.411-1.437 4.574-.93 3.738.597 9.404 3.473 6.844 3.473-1.538 0-1.097 2.098.745 3.538 1.232.965.938 1.619-2.017 4.489-2.759 2.679-3.47 4.116-3.508 7.092-.076 5.754-.197 6.309-1.235 5.667-.532-.329-.967-.166-.967.361s-.82 1.22-1.824 1.538c-1.497.475-1.726 1.22-1.282 4.174 1.014 6.741.456 16.559-1.047 18.412-.757.933-.694 1.496.23 2.068.698.431.971 1.268.606 1.86-.366.59-.247 1.074.263 1.074s.862 1.632.782 3.626c-.092 2.301.491 4.33 1.597 5.554.959 1.06 1.544 2.692 1.3 3.626-.245.933-.004 1.696.535 1.696.54 0 .73.653.424 1.45-.306.798-.11 1.45.437 1.45.546 0 .724.436.396.968-.329.531.201.966 1.178.966 1.866 0 5.63 3.666 4.709 4.587-.295.294.653 1.566 2.106 2.826 2.037 1.768 2.346 2.478 1.35 3.107-.71.448-1.253 1.092-1.208 1.432.045.339-.122.629-.372.644-.25.015-2.698 2.4-5.44 5.299-2.742 2.899-5.335 5.055-5.763 4.79-.427-.264-1.121.071-1.542.744-1.446 2.315-1.09 3.333 1.024 2.929 1.565-.3 3.815 1.21 8.702 5.84 3.625 3.435 6.847 6.292 7.158 6.35.312.057.655 1.797.761 3.867.106 2.069.94 4.901 1.852 6.294.913 1.392 1.338 2.532.946 2.532-.392 0-.228.583.364 1.297s.79 1.584.44 1.934c-.35.35-.162.636.416.636.887 0 2.277 3.703 2.72 7.25.067.533.46 1.748.873 2.701.413.954.483 2.001.156 2.328-.327.327-.114 1.173.472 1.88 1.37 1.65.28 4.569-1.457 3.902-.728-.279-1.812-.02-2.408.577-.802.802-1.115.593-1.2-.8-.063-1.038-.031-2.306.07-2.82.512-2.596.45-10.186-.084-10.185-.546 0-1.813-3.025-2.158-5.153-.072-.441-.885-1.355-1.807-2.029-.922-.674-1.394-1.51-1.047-1.856.346-.346.049-.63-.66-.63-.709 0-1.035-.253-.725-.563.31-.31-.285-1.414-1.324-2.452-1.702-1.702-2.034-1.74-3.38-.394-.822.822-1.894 1.247-2.383.945-.49-.302-.89-.123-.89.398 0 1.276-8.586 9.801-9.872 9.801-1.248 0-4.729-3.884-4.227-4.717.352-.584-1.66-2.835-2.931-3.28-.348-.121-1.02.822-1.49 2.097-.638 1.722-.434 2.786.796 4.144 1.616 1.786 1.235 1.824-16.888 1.715-10.198-.061-18.732-.42-18.964-.795-.668-1.082-4.59-.566-8.54 1.122l-3.625 1.55v16.533h4.777c2.627 0 5.021.397 5.32.881.621 1.004 2.36.887 4.237-.286 1.306-.815 5.734 2.953 5.243 4.462-.133.41.175.744.685.744.509 0 .835 1.632.725 3.626-.164 2.949-.607 3.683-2.377 3.934-1.196.17-2.175-.182-2.175-.782 0-.6-.408-.839-.907-.53-.5.308-1.26.008-1.692-.668-.87-1.364-5.135-1.846-5.135-.58 0 .44-.845.801-1.877.801s-2.15.442-2.484.983c-.334.54-1.012.732-1.507.426-.495-.306-.9-.096-.9.467 0 .564-1.508 1.024-3.352 1.024h-3.352l-.273 10.877-.274 10.876 2.9 2.862c1.596 1.574 3.119 2.894 3.384 2.935 1.315.198 5.457 2.917 6.509 4.27.666.86.948 2.723.64 4.233-.309 1.51-.036 3.32.619 4.11.644.775.851 1.41.461 1.41-.39 0 .221.761 1.357 1.692 1.136.93 2.269 2.997 2.517 4.592a99.506 99.506 0 0 0 1.054 5.559c.394 1.735.21 2.659-.533 2.659-.625 0-.915.357-.645.794.27.437-.063 1.862-.74 3.167-.677 1.306-1.05 2.92-.826 3.589.222.668.09 1.962-.294 2.875-.8 1.899-1.4 5.519-1.428 8.621-.01 1.17-.455 2.397-.987 2.725-.532.33-.734.976-.45 1.437.285.46.042 2.715-.541 5.009-.583 2.294-1.033 5.128-1 6.298.032 1.17-.35 2.38-.851 2.69-.5.309-.665 1.2-.365 1.98.3.781.224 2.182-.167 3.112-.676 1.607-1.272 4.8-1.491 7.976-.055.798-.337 2.103-.627 2.9-.66 1.82-1.23 5.632-1.255 8.412-.01 1.17-.429 2.38-.93 2.69-.5.309-.664 1.2-.364 1.981.3.78.213 2.18-.191 3.111-.405.93-.648 2.415-.54 3.299.106.883-.243 1.876-.777 2.206-.534.33-.736 1.212-.448 1.96.287.749.103 2.11-.41 3.024-.849 1.518-1.03 1.479-2.062-.451zm-124.9-428.177c-.063-.4-.03-.943.072-1.209 1.709-4.433.504-5.58-4.46-4.248-2.19.587-3.676 3.86-2.174 4.788.482.297.876.106.876-.426 0-.542 1.167-.357 2.658.42 3.092 1.614 3.18 1.633 3.028.675z" transform="matrix(.26458 0 0 .26458 -4.46 65.095)"/></svg>