<svg width="437.772" height="128mm" viewBox="0 0 115.827 128" xml:space="preserve" xmlns="http://www.w3.org/2000/svg"><path style="fill:none;fill-opacity:1;stroke:#000;stroke-width:3.74326;stroke-dasharray:none;stroke-opacity:1" d="M215.548 233.09c-2.584-3.566-3.116-6.534-2.132-11.876.716-3.885.662-4.535-.58-6.97-.772-1.513-1.37-4.01-1.37-5.718 0-2.05-1.645-7.663-5.079-17.334-2.793-7.867-5.078-14.787-5.078-15.38 0-.591-2.85-9.18-6.333-19.084-3.483-9.905-6.73-19.485-7.215-21.289-.76-2.826-1.382-3.61-4.5-5.681-3.224-2.14-3.618-2.66-3.618-4.767 0-1.3.354-3.545.786-4.988.742-2.477.667-2.771-1.354-5.286-1.881-2.34-2.14-3.167-2.14-6.822 0-6.307-2.328-14.14-7.224-24.307-5.28-10.965-7.639-17.685-16.53-47.077l-6.75-22.314 6.34-6.462c7.875-8.028 16.019-17.84 19.973-24.065a1069.63 1069.63 0 0 1 6.557-10.156c4.446-6.79 10.001-17.78 9.444-18.682-.231-.374.296-1.396 1.172-2.271.875-.876 2-2.766 2.5-4.2.5-1.434 1.897-4.74 3.104-7.347 1.207-2.606 2.74-6.872 3.408-9.479.668-2.606 1.607-5.196 2.087-5.755.48-.558.904-1.24.94-1.516.1-.74.728-2.662 1.484-4.538.367-.91.926-2.89 1.243-4.401.316-1.511 1.532-5.947 2.702-9.857 1.17-3.91 2.257-7.87 2.415-8.802.685-4.021 2.93-14.118 3.74-16.81.746-2.486.733-3.026-.09-3.555-.723-.465-.765-.756-.165-1.145 1.353-.878 2.69-5.562 4.007-14.036.173-1.117.609-3.493.968-5.28.36-1.788.653-4.386.653-5.774 0-1.389.46-3.181 1.022-3.984.987-1.409 1.37-3.477 1.981-10.69.158-1.862.308-3.622.335-3.91.026-.289.81-.815 1.743-1.17 1.67-.635 4.863.22 5.823 1.561.605.844 2.66-1.468 4.076-4.585 1.368-3.012 1.65-6.214.58-6.57-.767-.256.74-10.095 2.411-15.748.543-1.837.987-4.046.987-4.91 0-1.4.346-1.585 3.216-1.715 1.769-.08 4.531-.08 6.14 0 1.607.08 3.47-.148 4.139-.506s3.3-.709 5.847-.779c3.825-.105 4.755.085 5.34 1.088.39.668 1.347 1.986 2.128 2.927 1.38 1.665 1.511 1.688 4.74.819 1.825-.491 4.104-1.616 5.062-2.5 1.04-.958 2.403-1.532 3.376-1.424 1.147.128 1.835-.271 2.31-1.34.373-.839 1.057-1.524 1.52-1.524.464 0 1.015-.838 1.225-1.862.21-1.024.722-3.08 1.137-4.57.414-1.49.81-4.08.877-5.755.083-2.082.74-3.973 2.073-5.97l1.95-2.923 1.778 2.179c1.186 1.453 1.941 1.915 2.268 1.386.27-.435 1.939-1.526 3.71-2.424 1.771-.897 4.05-2.72 5.065-4.05 1.61-2.111 2.212-2.417 4.757-2.417 3.324 0 6.497-2.32 6.497-4.752 0-.787.315-2.02.7-2.74.73-1.364 7.134-5.355 8.61-5.366 1.435-.01.935 3.169-.828 5.264-2.467 2.932-3.21 5.44-2.703 9.123.302 2.198.173 3.58-.4 4.27-.7.843-.53 1.351.975 2.922 2.349 2.452 3.011 6.23 1.497 8.54-1.086 1.657-1.068 1.735.522 2.34 3.464 1.317 5.265 7.28 2.643 8.747-1.108.62-1.107.725.017 1.968 1.04 1.15 1.064 1.415.188 2.142-.55.457-1.624.632-2.387.39-1.232-.39-1.387-.152-1.387 2.145-.002 4.655 1.531 14.071 2.468 15.164 1.356 1.58 1.128 3.45-.872 7.14-4.292 7.92-9.364 14.775-11.008 14.88-.595.038-1.61.114-2.254.17-.645.055-1.363.861-1.597 1.792-.234.931-.878 1.693-1.432 1.693-.554 0-1.927.655-3.05 1.456-1.125.8-3.914 2.095-6.2 2.877-3.278 1.123-4.199 1.746-4.372 2.962-.12.847-.958 2.025-1.861 2.617-1.55 1.016-2.292 4.11-1.237 5.164.683.684.838 6.59.173 6.59-1.283 0-1.83 3.005-.833 4.577.709 1.118.783 1.88.276 2.829-.382.714-.533 1.72-.335 2.237.198.516-.101 2.71-.665 4.876-.564 2.166-.862 4.203-.661 4.527.2.324.009.59-.426.59-.484 0-.602.457-.305 1.184.44 1.081 1.274 15.296 1.18 20.143-.06 3.136-1.517 9.07-3.295 13.417-1.834 4.486-1.892 5.26-.658 8.716.56 1.57.654 2.735.251 3.138s-.266 1.365.369 2.592c1.115 2.156.819 5.372-.65 7.065-1.063 1.226-.548 5.389.765 6.175.482.29.75 1.905.677 4.063-.068 1.97.13 5.049.44 6.84.48 2.785.327 3.724-1.062 6.464-.893 1.763-2.717 6.81-4.053 11.216-2.278 7.514-2.428 8.583-2.428 17.28 0 10.952-.712 13.905-5.489 22.78-1.822 3.385-3.31 6.889-3.308 7.786.003.898 1.561 3.917 3.464 6.71 3.39 4.975 3.452 5.155 3.1 9.031-.269 2.972-.978 4.96-2.851 7.995-2.43 3.936-2.482 4.158-2.027 8.69l.467 4.65-2.82 1.865c-3.683 2.438-5.432 5.915-5.432 10.8 0 3.27-.197 3.865-1.38 4.175-1.863.487-3.359 3.58-3.359 6.946 0 1.722-.764 4.274-2.031 6.785-1.117 2.213-2.031 4.467-2.031 5.01 0 .542-.39 1.389-.868 1.881-2.304 2.377-4.169 6.977-5.578 13.76-.85 4.095-2.074 8.365-2.719 9.488-1.151 2.006-1.135 2.114.95 6.244 1.166 2.311 2.12 4.502 2.12 4.868 0 .367-.762 1.791-1.695 3.166-.933 1.374-1.662 3.292-1.62 4.261.04.97-.305 2.688-.768 3.82-.713 1.737-.62 3.028.605 8.345.796 3.459 1.448 6.753 1.448 7.32 0 .566-1.712 3.459-3.804 6.427-4.6 6.527-6.392 12.347-5.857 19.014.297 3.699.1 4.779-1.43 7.795-.975 1.926-1.777 4.654-1.782 6.063-.004 1.409-.457 4.237-1.007 6.285-.55 2.048-1.003 6.028-1.008 8.845-.008 4.838-.123 5.23-2.101 7.109-1.151 1.094-2.719 3.207-3.483 4.697-.764 1.49-1.93 3.089-2.59 3.554-.661.465-1.861 1.912-2.667 3.216-.805 1.304-1.742 2.37-2.082 2.37-.34 0-1.527-1.254-2.638-2.788z" transform="matrix(.26458 0 0 .26458 -4.46 65.095)"/></svg>