<svg width="437.772" height="128mm" viewBox="0 0 115.827 128" xml:space="preserve" xmlns="http://www.w3.org/2000/svg"><path style="fill:none;fill-opacity:1;stroke:#000;stroke-width:3.74994;stroke-dasharray:none;stroke-opacity:1" d="M304.088 234.443c-.304-.791-1.178-1.439-1.942-1.439-.763 0-1.578-.54-1.809-1.199-.275-.783-1.11-.367-2.407 1.2-1.778 2.146-2.055 2.221-2.64.719-.359-.924-1.208-1.679-1.887-1.679-.678 0-1.492-.675-1.809-1.5-.316-.824-1.013-1.229-1.548-.898-.535.33-1.23-.071-1.546-.893-.315-.822-.963-1.253-1.439-.96-.476.295-1.124-.14-1.44-.964-.317-.825-1.191-1.5-1.943-1.5-.751 0-1.613-.645-1.916-1.433-.303-.788-.94-1.192-1.416-.898-.476.294-1.123-.138-1.438-.96-.316-.821-.963-1.253-1.44-.959-.475.294-1.124-.14-1.44-.964-.317-.825-1.19-1.5-1.942-1.5-.751 0-1.614-.645-1.916-1.433-.303-.789-.94-1.193-1.416-.899-.476.294-1.124-.14-1.44-.965-.317-.824-1.131-1.5-1.81-1.5-.678 0-1.492-.674-1.809-1.499-.316-.825-.956-1.264-1.42-.977-.466.287-2.002-.549-3.414-1.858-1.413-1.309-2.932-2.38-3.376-2.38-.443 0-1.066-.675-1.382-1.5-.317-.824-1.013-1.229-1.548-.898-.535.33-1.231-.071-1.547-.893-.315-.822-.962-1.253-1.438-.96-.476.295-1.125-.139-1.441-.964-.317-.825-1.13-1.5-1.81-1.5-.678 0-1.492-.674-1.808-1.5-.317-.824-1.014-1.228-1.549-.898-.535.331-1.23-.07-1.546-.892-.315-.822-.963-1.254-1.439-.96-.476.294-1.124-.14-1.44-.964-.317-.825-1.131-1.5-1.81-1.5-.678 0-1.492-.675-1.809-1.5-.316-.825-.983-1.247-1.482-.939-.5.309-1.335-.204-1.858-1.138-.523-.934-1.197-1.59-1.498-1.459-.3.132-1.41-.624-2.465-1.679-1.056-1.055-1.674-1.918-1.374-1.918.3 0-.4-1.329-1.557-2.952-1.657-2.327-2.585-2.831-4.382-2.38-2.337.587-3.238-.836-1.08-1.707.716-.289.523-.514-.48-.56-.924-.041-1.679-.35-1.679-.684 0-1.102 4.664-4.959 5.267-4.356.325.325.278-.223-.103-1.217-.409-1.064-.32-1.575.217-1.244 1.028.636.982-2.749-.072-5.252-.382-.906-.496-2.201-.255-2.878.606-1.702-2.046-6.7-3.183-5.997-.509.314-1.183-.1-1.499-.923-.315-.821-.894-1.295-1.286-1.053-.393.243-1.597-.381-2.675-1.386-1.08-1.006-2.224-1.566-2.544-1.246-.32.32-.581.053-.581-.594s-.432-.91-.96-.583c-.527.326-.959.182-.959-.32 0-.5-1.08-1.182-2.398-1.513-1.319-.33-2.398-1.05-2.398-1.6 0-.548-.432-.73-.96-.404-.527.326-.959.11-.959-.48s-.366-.846-.814-.569c-.447.277-1.696-.32-2.775-1.324-1.079-1.006-2.223-1.566-2.543-1.246-.32.32-.582.052-.582-.594 0-.647-.432-.91-.96-.583-.527.326-.959.182-.959-.32 0-.5-1.079-1.182-2.398-1.513-1.319-.33-2.398-1.05-2.398-1.6 0-.548-.431-.73-.959-.404-.528.326-.96.11-.96-.48s-.365-.846-.813-.57c-.448.278-1.697-.318-2.776-1.324-1.079-1.005-2.223-1.565-2.543-1.245-.32.32-.582.052-.582-.594 0-.647-.431-.91-.96-.583-.527.326-.958.11-.958-.48s-.367-.846-.814-.57c-.448.277-1.697-.319-2.776-1.324-1.079-1.005-2.223-1.565-2.543-1.245-.32.32-.582.078-.582-.538 0-.615-.324-1.044-.72-.952-1.192.278-5.995-2.33-5.995-3.255 0-.474-.431-.595-.959-.27-.527.327-.959.111-.959-.479s-.366-.846-.814-.57c-.448.277-1.697-.319-2.776-1.324-1.078-1.005-2.223-1.566-2.543-1.246-.32.32-.582.053-.582-.594 0-.646-.431-.908-.959-.582-.527.326-.959.11-.959-.48s-.366-.846-.814-.57c-.448.277-1.697-.319-2.776-1.324-1.078-1.005-2.223-1.566-2.543-1.246-.32.32-.582.078-.582-.537 0-.616-.323-1.044-.72-.952-1.192.278-5.994-2.33-5.994-3.255 0-.474-.432-.596-.96-.27-.527.327-.959.11-.959-.48 0-.589-.366-.845-.814-.568-.447.276-1.696-.32-2.775-1.325-1.08-1.005-2.224-1.566-2.544-1.246-.32.32-.581.053-.581-.594 0-.646-.367-.95-.814-.672-.448.276-1.697-.32-2.776-1.325-1.079-1.005-2.223-1.566-2.543-1.246-.32.32-.582.053-.582-.594 0-.646-.432-.909-.96-.583-.527.327-.958.183-.958-.319 0-.501-1.08-1.182-2.398-1.513-1.32-.331-2.399-1.051-2.399-1.6 0-.548-.431-.73-.959-.404-.527.326-.959.11-.959-.48s-.366-.846-.814-.57c-.448.277-1.697-.319-2.776-1.324-1.078-1.005-2.223-1.566-2.543-1.246-.32.32-.582.053-.582-.594 0-.646-.431-.909-.959-.583-.527.326-.96.183-.96-.319 0-.501-1.078-1.182-2.397-1.513-1.32-.331-2.398-1.051-2.398-1.6 0-.548-.432-.73-.96-.405-.527.327-.959.11-.959-.48 0-.589-.366-.845-.814-.569-.447.277-1.696-.319-2.775-1.324-1.08-1.005-2.224-1.566-2.544-1.246-.32.32-.581.053-.581-.594 0-.646-.432-.909-.96-.583-.527.326-.959.136-.959-.423 0-.558-.647-1.016-1.439-1.016-.791 0-1.438-.457-1.438-1.015 0-.56-.432-.75-.96-.423-.527.326-.959.11-.959-.48s-.432-.806-.96-.48c-.527.326-.958.136-.958-.423 0-.558-.877-1.015-1.949-1.015s-2.196-.645-2.499-1.434c-.302-.788-.936-1.194-1.408-.902-.473.291-.859.048-.859-.542 0-.59-.366-.846-.814-.57-.448.277-1.697-.319-2.776-1.324-1.078-1.005-2.223-1.566-2.543-1.246-.32.32-.582.053-.582-.594 0-.646-.431-.909-.959-.583-.527.326-.959.183-.959-.319 0-.501-1.08-1.182-2.398-1.513-1.32-.331-2.398-1.051-2.398-1.6 0-.549-.432-.73-.96-.405-.527.326-.959.11-.959-.48s-.366-.845-.814-.569c-.447.277-1.696-.319-2.775-1.324-1.08-1.005-2.224-1.566-2.544-1.246-.32.32-.581.053-.581-.594s-.395-.932-.878-.633c-.482.298-1.022.111-1.199-.415-.177-.526-1.508-1.055-2.96-1.175-1.45-.12-2.637-.555-2.637-.967 0-.413-1.042-.75-2.315-.75-2.256 0-2.32-.215-2.512-8.393-.108-4.617-.2-9.689-.203-11.271-.011-5.081 1.22-15.086 2.035-16.543.434-.776.379-3.415-.124-5.864-.503-2.448-.998-5.107-1.101-5.907-.103-.801-.567-2.07-1.031-2.821-.538-.87-.432-1.503.29-1.744.625-.208.905-.752.623-1.208-.281-.456.375-1.304 1.46-1.884 1.085-.58 1.717-1.469 1.405-1.974-.312-.505.105-1.176.927-1.491.822-.315 1.271-.934.999-1.375-.273-.44.369-1.607 1.425-2.59 1.167-1.088 1.761-2.615 1.515-3.895-.223-1.157-.039-2.105.41-2.105.447 0 .612-.771.365-1.715-.508-1.941 3.62-6.918 5.738-6.918.75 0 1.998-1.306 2.77-2.902.774-1.596 2.708-3.862 4.298-5.036 1.59-1.173 2.963-2.565 3.049-3.093.72-4.414 3.42-11.843 4.143-11.396.496.306 1.507-.241 2.246-1.218.74-.976 1.358-1.368 1.375-.871.017.496.618.1 1.335-.882.822-1.124 2.565-1.813 4.711-1.862 1.874-.043 3.256-.23 3.073-.416-.183-.186.06-1.373.541-2.638.55-1.446.53-2.3-.055-2.3-.511 0-.748-.97-.527-2.158.221-1.187.434-2.507.474-2.934.039-.427.502-.51 1.03-.183.893.552 1.09.09 1.353-3.178.056-.693 1.123-2.03 2.372-2.973 2.05-1.546 3.85-7.387 4.165-13.513.04-.792.548-1.763 1.128-2.159.725-.494.605-1.008-.385-1.643-.791-.509-1.476-1.264-1.522-1.679-.045-.415-.402-1.476-.793-2.358-.39-.882-.23-2.5.357-3.597.79-1.478.783-1.994-.03-1.994-.602 0-.846-.647-.543-1.439.304-.79.109-1.438-.433-1.438s-.72-.432-.393-.96c.326-.527.11-.959-.48-.959s-.828-.395-.53-.877c.298-.483.09-1.028-.464-1.213-1.548-.516-1.772-5.832-.308-7.296 1.575-1.575 1.692-3.084.24-3.084-.584 0-.813-.647-.51-1.439.304-.791.14-1.439-.365-1.439-1.451 0-4.731-3.135-4.192-4.008.268-.433.021-.788-.548-.788-.569 0-.856-.981-.639-2.18.447-2.465-2.329-6.453-4.491-6.453-1.53 0-5.715-7.097-4.753-8.06.91-.909-1.844-5.369-3.315-5.369-1.544 0-4.45-6.351-3.746-8.186.263-.686-.142-1.485-.9-1.776-1.695-.651-1.812-3.131-.179-3.794.93-.377.904-.693-.113-1.405-1.07-.75-.94-1.293.714-2.946 1.254-1.253 1.873-2.852 1.623-4.19-.221-1.19-.435-2.487-.474-2.883-.04-.395-.719-.72-1.51-.72-.792 0-1.388-.323-1.325-.719.28-1.774-.27-2.051-2.438-1.227-2.292.871-5.175-.786-3.785-2.176.324-.324-.515-.389-1.865-.144-2.989.542-4.428-1.342-2.244-2.939 2.33-1.705 1.954-2.108-1.494-1.602-3.056.448-3.067.434-1.566-1.857 1.253-1.911 1.294-2.512.242-3.496-.7-.653-1.747-1.187-2.328-1.187-.58 0-.785-.439-.454-.975a1.156 1.156 0 0 1 1.588-.366c.58.359.825-.128.596-1.183-.214-.986-.956-1.667-1.65-1.513-.886.197-1.116-.482-.773-2.277.371-1.942.055-2.67-1.316-3.028-1.505-.394-.746-1.564 4.568-7.045 3.506-3.615 6.71-6.364 7.122-6.11.412.255 2.565-1.691 4.785-4.323 2.22-2.633 4.376-4.577 4.792-4.32.415.257 1.681-.833 2.813-2.422 1.131-1.589 2.594-2.889 3.25-2.889.656 0 2.16-1.307 3.34-2.904 1.181-1.597 2.51-2.68 2.952-2.407.442.273 1.959-1.018 3.371-2.87 1.412-1.85 2.902-3.158 3.311-2.905.41.253 1.698-.83 2.864-2.407s2.481-2.643 2.924-2.37c.442.273 1.959-1.018 3.371-2.869 1.412-1.851 2.913-3.152 3.336-2.89 1.013.625 4.095-2.805 3.265-3.635-.353-.353-.138-.642.478-.642.615 0 1.119-.647 1.119-1.439 0-.791.431-1.438.959-1.438.527 0 .851-.54.72-1.2-.274-1.365 9.525-1.551 16.066-.305 4.882.93 11.99 4.1 11.99 5.346 0 .525-.52.847-1.155.715-1.673-.347-1.548 2.43.172 3.819 1.298 1.047 1.301 1.289.025 2.143-.792.53-1.03.97-.528.978.501.008.393.532-.24 1.165-.701.702-1.15 4.116-1.15 8.735 0 6.947.2 7.742 2.397 9.47 1.32 1.038 2.398 2.503 2.398 3.256 0 .753.432 1.369.96 1.369.527 0 .959 1.27.959 2.821 0 2.786 1.028 4.025 3.837 4.628 5.157 1.107 16.578 1.792 26.858 1.612 6.595-.115 12.422.052 12.95.373.527.32 1.655.691 2.507.824 3.175.496 6.703 2.237 6.196 3.058-.29.467.764 1.384 2.34 2.037 1.576.653 2.865 1.591 2.865 2.086 0 .495.435.631.966.303.532-.329 1.225.075 1.54.897.315.821.963 1.253 1.439.959.476-.294 1.123.137 1.439.96.315.821.962 1.253 1.438.958.476-.294 1.124.138 1.44.96.315.821.894 1.295 1.286 1.053.392-.243 1.742.515 2.998 1.684 1.257 1.169 2.63 2.013 3.05 1.876.42-.136 1.014.4 1.318 1.194.305.793.918 1.217 1.364.941.446-.275 1.286.387 1.866 1.471.58 1.085 1.469 1.717 1.974 1.405.505-.312 1.176.105 1.49.927.316.822.964 1.254 1.44.96.476-.295 1.124.14 1.44.964.317.825 1.177 1.5 1.912 1.5.735 0 1.337.431 1.337.959s.647.96 1.438.96c.792 0 1.44.43 1.44.958s.647.96 1.438.96c.792 0 1.439.503 1.439 1.119 0 .615.285.834.633.486.349-.349 1.216.197 1.927 1.212 1.92 2.743 6.813 4.856 11.256 4.862 2.162.003 5.608.471 7.66 1.04 2.826.786 3.904.755 4.449-.127.406-.658 1.247-.838 1.934-.414.79.49.975.365.53-.356-.988-1.598.898-1.365 2.263.28.844 1.016 1.771 1.15 3.475.503 2.168-.825 2.718-.548 2.437 1.227-.062.395.678.72 1.645.72.968 0 2.083.323 2.478.719.396.395 1.115.773 1.599.839.484.066.987.197 1.12.292.862.62 8.19.515 7.802-.112-.801-1.296 3.3-.876 7.096.726 2.156.91 6.853 1.574 11.88 1.679 7.063.147 8.473-.085 9.383-1.543.59-.944 1.555-1.417 2.147-1.05.616.38.81.235.456-.339-.34-.552.996-2.462 2.97-4.245 1.974-1.784 3.656-3.574 3.739-3.978.634-3.105 3.412-8.323 4.178-7.85.521.323.948.103.948-.486 0-.59.431-.806.959-.48.527.326.959.11.959-.48s.432-.805.96-.48c.527.327.96.244.96-.182.003-.83 9.102-5.767 11.51-6.246.79-.157 1.693-.631 2.004-1.053.311-.422 1.498-.838 2.638-.924 1.14-.086 2.072-.521 2.072-.968 0-.446.402-.563.893-.26.49.304 1.168.107 1.505-.438.337-.545 1.014-.742 1.505-.439.491.304.893.07.893-.52 0-.59.395-.829.877-.53.483.298 1.029.088 1.214-.466.184-.555 1.3-1.08 2.48-1.17 1.179-.088 2.144-.467 2.144-.84 0-.373 1.402-.983 3.117-1.355s3.435-1.162 3.822-1.755c.491-.752.71-.698.72.177.008.69.48.968 1.047.617.568-.35 1.88.271 2.915 1.383 1.035 1.11 1.554 2.02 1.152 2.02-1.056 0 3.828 3.334 4.972 3.394.528.028.84.603.696 1.277-.145.675.102 1.001.548.725.978-.604 4.113 2.836 3.314 3.636-.309.308.184.56 1.094.56.91 0 1.443.344 1.184.764-.26.42 2.197.643 5.459.494 3.262-.149 11.624-.437 18.581-.64l12.651-.37-1.49 2.274c-.82 1.251-1.898 2.275-2.396 2.275s-.636.434-.308.966c.328.53-.078 1.225-.903 1.541-.824.317-1.5 1.13-1.5 1.81 0 .678-.674 1.492-1.499 1.808-.825.317-1.23 1.013-.898 1.548.33.535-.072 1.231-.893 1.547-.822.315-1.254.962-.96 1.438.295.476-.14 1.125-.964 1.441-.825.317-1.5 1.19-1.5 1.942s-.645 1.614-1.433 1.916c-.789.303-1.193.94-.899 1.416.294.476-.137 1.123-.959 1.439-.822.315-1.253.963-.96 1.439.295.476-.14 1.124-.964 1.44-.825.317-1.5 1.19-1.5 1.942s-.645 1.614-1.433 1.917c-.788.302-1.193.94-.898 1.415.294.476-.138 1.124-.96 1.44-.821.314-1.253.962-.959 1.438.294.476-.14 1.124-.965 1.44-.824.317-1.5 1.061-1.5 1.654 0 .592-3.664 4.759-8.143 9.259l-8.143 8.181-.03 87.232c-.027 77.616.133 87.323 1.449 88.059.813.455 1.242 1.211.952 1.68-.29.469.386 1.34 1.501 1.937 1.115.597 1.778 1.335 1.472 1.64-.306.306.312 1.164 1.373 1.907 1.06.743 1.708 1.708 1.438 2.144-.27.436.155 1.04.943 1.343.788.303 1.433 1.165 1.433 1.916 0 .752.648 1.615 1.44 1.919.79.304 1.438 1.167 1.438 1.918 0 .752.675 1.626 1.5 1.942.825.317 1.244.989.932 1.494-.312.504.32 1.392 1.405 1.973 1.085.58 1.732 1.444 1.439 1.918-.293.475.354 1.338 1.439 1.919 1.084.58 1.732 1.444 1.439 1.918-.294.475.354 1.338 1.438 1.919 1.085.58 1.747 1.42 1.472 1.866-.276.446.144 1.058.932 1.36 2.45.94 1.588 3.773-2.22 7.3-2.01 1.86-2.657 2.552-1.439 1.537 4.34-3.618 2.12.086-3.46 5.77-5.237 5.335-5.773 5.648-6.927 4.046-1.551-2.152-2.746-2.233-2.746-.185 0 1.143-.64 1.429-2.432 1.086-1.63-.312-2.824.094-3.62 1.23-1.389 1.983-4.404 2.681-6.341 1.468-1.042-.652-1.211-.459-.72.822.354.92.643 2.934.643 4.473 0 2.16.438 2.8 1.918 2.8 2.241 0 2.366.768.52 3.204-.818 1.08-2.017 1.554-3.087 1.221-2.324-.724-3.52.219-5.037 3.968-.694 1.715-1.749 3.118-2.344 3.119-.596 0-2.271 1.023-3.724 2.272-2.215 1.906-3.49 2.223-7.913 1.967-3.42-.197-5.273.072-5.273.765 0 .588-.267.802-.594.476-.326-.327-1.225.037-1.996.808-.77.771-1.906 1.113-2.523.76-.617-.353-.81-.298-.43.124.382.422-.374 2.035-1.678 3.585-1.304 1.55-2.371 3.864-2.371 5.142 0 1.279-.392 2.325-.87 2.325s-.632.907-.342 2.017c.304 1.16-.018 2.354-.759 2.811-.928.574-.533.985 1.422 1.475 2.244.564 2.441.83 1.149 1.553-.858.48-1.56 1.894-1.56 3.143 0 1.248-.535 2.449-1.189 2.667-.737.245-1.073 1.733-.885 3.918.233 2.71-.101 3.672-1.449 4.169-4.462 1.645-10.168 11.554-11.376 19.756-.328 2.23-.998 4.2-1.488 4.376-.49.177-.647.717-.348 1.2.298.482.06.876-.53.876-.59 0-.848.364-.573.809.274.445-.996 3.13-2.824 5.966-1.828 2.837-3.567 5.927-3.865 6.866-.298.939-.97 1.707-1.493 1.707-.523 0-.732.355-.464.788.268.434-.097 1.914-.81 3.29-.714 1.375-1.052 2.747-.75 3.048.3.302.043.548-.573.548-.615 0-1.068.324-1.005.72.062.395.062 1.743 0 2.994-.1 2.014-.3 2.124-1.737.96-.892-.724-1.338-.84-.99-.258.923 1.54-1.411 7.095-2.982 7.095-.94 0-1.212.854-.915 2.877.44 2.996-.55 3.94-1.51 1.44zm67.493-111.75a.962.962 0 0 0-.96-.96.962.962 0 0 0-.959.96c0 .527.432.96.96.96.527 0 .959-.433.959-.96z" transform="matrix(.26458 0 0 .26458 -4.46 65.095)"/></svg>