<svg width="437.772" height="128mm" viewBox="0 0 115.827 128" xml:space="preserve" xmlns="http://www.w3.org/2000/svg"><g style="fill:none;stroke:#000;stroke-width:3.66321;stroke-dasharray:none;stroke-opacity:1"><path style="fill:none;fill-opacity:1;stroke:#000;stroke-width:3.66321;stroke-dasharray:none;stroke-opacity:1" d="M-143.09 248.683c-.348-.908-.986-1.16-1.66-.654-1.403 1.05-7.471 1.435-7.144.453.136-.407-.188-.886-.72-1.065-.532-.178-1.445-.72-2.028-1.205-.68-.564-1.697-.18-2.83 1.072-1.35 1.492-1.952 1.663-2.549.722-.613-.967-.784-.972-.796-.023-.008.665-.885 1.209-1.948 1.209-2.26 0-2.505-1.223-.567-2.832 1.665-1.382.495-4.023-3.545-8.001-4.124-4.06-3.472-8.473 1.53-10.375 1.522-.578 2.419-1.477 2.058-2.061-.352-.57.787-2.311 2.533-3.87 1.745-1.557 2.81-2.832 2.366-2.832-.444 0-.052-.836.872-1.857 1.606-1.774 1.583-1.909-.517-3.033l-2.197-1.176 2.359-1.918c1.297-1.055 2.216-2.58 2.043-3.39-.174-.81.208-1.796.849-2.192.64-.396.861-1.21.49-1.81-.37-.6-1.079-.841-1.574-.535-.495.306-.9.095-.9-.468 0-.563.422-1.024.937-1.024.515 0 .687-.65.382-1.444-.354-.924.265-1.772 1.723-2.355 1.252-.502 1.896-.94 1.432-.973-.464-.034-.301-.714.36-1.512.897-1.08.913-1.45.062-1.45-.628 0-.85-.473-.493-1.051s1.47-.836 2.474-.574c2.226.582 2.276.28.28-1.715-1.855-1.855-1.023-4.845 1.12-4.022.854.327 1.24.163.901-.383-.325-.526-.12-.956.456-.956.61 0 .392-.998-.522-2.393-1.492-2.278-1.702-2.323-4.373-.942-2.97 1.536-3.31 1.134-2.896-3.435.106-1.172-.999-1.403-5.723-1.195-5.004.22-6.166-.06-7.996-1.931-1.178-1.204-3.012-2.341-4.076-2.528-4.26-.745-5.317-2.017-5.317-6.397 0-3.588-.438-4.562-2.808-6.25-3.47-2.471-4.078-2.479-6.837-.086-1.213 1.052-2.596 1.673-3.072 1.378-.477-.294-.747.024-.6.706.308 1.441-4.039 2.019-5.615.747-.626-.505-1.791-.28-2.9.558-2.116 1.601-6.017 1.86-8.106.539-.897-.568-1.87-.522-2.648.123-1.535 1.275-2.975-1.728-1.524-3.179 1.15-1.15.408-5.884-.805-5.134-.471.29-.857.114-.857-.393 0-.506-1.087-.858-2.416-.782-1.329.077-2.417.466-2.417.865 0 .399-.648.725-1.44.725-.93 0-1.656-1.365-2.057-3.867-.34-2.127-.997-3.868-1.461-3.868-.464 0-.735-.424-.602-.943.133-.52-1.063-2.068-2.658-3.443-1.921-1.655-2.49-2.67-1.686-3.006.668-.279.968-.905.668-1.391-.3-.487-.013-.884.638-.884.652 0 .923-.263.602-.583-.32-.32-.186-1.626.299-2.9.61-1.608.542-2.318-.223-2.318-.607 0-.835-.27-.506-.599.859-.858-1.79-3.268-3.59-3.268-1.394 0-1.971-1.163-1.604-3.233.08-.449-.413-.637-1.094-.418-.681.219-1.649 2.218-2.15 4.441-.5 2.224-1.32 4.044-1.822 4.044-1.147 0-5 4.108-5.794 6.178-.768 2.001-3.558 2.03-3.558.037 0-.984-.767-1.458-2.175-1.344-6.663.54-6.735.471-6.053-5.74.406-3.705.258-5.93-.423-6.351-.576-.357-.798-1.053-.492-1.548.306-.495-.557-.9-1.918-.9-1.36 0-2.488-.544-2.506-1.209-.018-.665-.888-.181-1.934 1.074-1.045 1.255-1.901 1.95-1.901 1.544 0-.776-2.42 1.872-4.769 5.216-.761 1.085-1.694 1.78-2.074 1.546-.907-.56-2.02 2.387-1.325 3.511.551.892-4.14.936-5.802.054-1.5-.796-5.47-.748-5.977.072-1.012 1.637-1.817.604-2.047-2.626-.133-1.86.193-3.382.725-3.382 1.105 0 .881-2.124-.317-3.003-.44-.323-2.535.012-4.656.742-2.122.731-4.263 1.078-4.76.772-.496-.307-.902-.072-.902.523 0 .594-.436.812-.967.483-.532-.329-.967-.111-.967.483 0 .595-.422.82-.939.501-1.054-.652-2.284 3.383-2.284 7.496 0 1.687.793 3.269 2.095 4.181 2.42 1.696 2.959 5.763.645 4.875-.798-.306-1.45-.205-1.45.223 0 .43-1.585.84-3.521.913-1.937.072-3.246-.143-2.91-.48.337-.336.122-1.203-.477-1.925-.797-.96-2.396-1.14-5.952-.668-4.052.537-4.77.408-4.315-.779.32-.834-.315-1.961-1.533-2.722-2.313-1.445-6.43-2.15-6.43-1.1 0 1.01-3.746 1.097-4.362.1-.293-.474-1.172-.617-1.953-.318-.78.3-1.419.038-1.419-.582s-.435-.859-.967-.53c-.531.329-.966.137-.966-.426s-.383-.915-.85-.783c-.468.133-1.991-.977-3.385-2.466-1.393-1.49-2.547-2.36-2.564-1.934-.017.426-.579.054-1.25-.827-1.813-2.385-6.406-1.816-7.083.877-.3 1.196-.842 2.175-1.203 2.175-.361 0-.727.935-.813 2.078-.201 2.672-.812 3.142-6 4.621-3.884 1.108-4.421 1.054-5.627-.562-.733-.982-1.75-1.673-2.258-1.536-.51.138-1.177-.403-1.483-1.203-.307-.799-.944-1.215-1.416-.923-.883.546-4.17-.886-3.663-1.595.45-.628-3.29-4.689-3.945-4.284-.324.2-3.256.637-6.517.97-5.087.521-6.072.36-6.944-1.138-.558-.96-1.028-1.366-1.044-.902-.017.464-.678.306-1.47-.351-.791-.657-1.2-1.58-.909-2.052.291-.471.07-.857-.494-.857-.563 0-1.024-.653-1.024-1.45 0-.798-.393-1.45-.874-1.45-.48 0-2.42-1.37-4.309-3.042-2.797-2.476-3.257-3.375-2.476-4.834.528-.986 1.55-1.793 2.272-1.793.722 0 1.574-.68 1.893-1.511.319-.831.973-1.269 1.452-.972.48.296 1.133-.139 1.45-.967.318-.828 1.017-1.235 1.552-.904.536.33.974.115.974-.48 0-.594.398-.835.884-.534.486.3 1.051.045 1.255-.567.21-.629 2.78-1.216 5.894-1.347 3.038-.128 6.14-.744 6.893-1.37 1.063-.882 2.024-.799 4.285.37 2.011 1.04 3.116 1.183 3.563.46.356-.576 1.468-.833 2.472-.57 1.003.262 1.824.083 1.824-.4 0-1.634 5.966-.886 8.437 1.058 1.352 1.064 2.151 1.934 1.776 1.934-.376 0 .005.687.845 1.528 1.505 1.504 1.18 3.813-.4 2.837-.445-.276-.585.36-.31 1.411.396 1.513.868 1.715 2.264.968 2.44-1.306 2.856-1.197 2.86.748.002 1.268.832 1.71 3.314 1.762 4.571.096 10.203 4.062 10.211 7.19.004 1.374.846 2.95 1.94 3.634 1.064.664 1.934 1.882 1.934 2.707 0 .824.435 1.23.967.901.532-.328.967-.11.967.484s.347.866.771.604c.424-.262 1.365-.11 2.09.338.822.508 1.86.276 2.752-.617.86-.859 2.32-1.21 3.653-.875 1.96.492 2.183.245 1.905-2.105a87.388 87.388 0 0 1-.426-4.895c-.06-1.228-.545-1.964-1.077-1.635-.532.329-.967.111-.967-.483 0-.595-.464-.794-1.032-.444-.568.352-1.27-.274-1.563-1.393-.292-1.117-1.024-2.056-1.627-2.086-7.866-.4-10.978-1.78-9.578-4.249.316-.557.236-.707-.179-.334-.883.796-3.423-1.493-3.423-3.084 0-.601-.377-.86-.838-.575-.815.504-4.7-3.054-3.91-3.58 3.488-2.324 8.501-3.602 12.36-3.15 2.46.287 3.926.269 3.258-.042-.668-.31-.969-.962-.668-1.449.3-.486.103-.884-.44-.884-.542 0-1.905-.979-3.028-2.175-1.307-1.392-1.93-1.653-1.73-.725.219 1.014-.341 1.359-1.862 1.147-1.197-.166-2.176.186-2.176.783 0 .596-.435.815-.966.487-.532-.329-.967-.137-.967.426s-.326.955-.725.87c-.4-.084-1.54.2-2.537.633-1.274.553-2.077.312-2.707-.813-.589-1.052-2.157-1.6-4.582-1.6-3.213 0-3.672-.28-3.572-2.175.13-2.443-2.1-5.56-3.978-5.56-.68 0-1.235-.46-1.235-1.023s-.51-.71-1.131-.325c-.76.47-.93.172-.514-.91.34-.884.372-1.608.072-1.608-.948 0-6.63 3.351-6.967 4.109-.177.398-.89.725-1.584.725-.695 0-1.53 1.427-1.858 3.172-.327 1.745-1.463 3.916-2.524 4.825-2.508 2.147-2.451.732.148-3.673l2.077-3.52-2.56-2.375c-2.65-2.457-3.406-5.197-1.434-5.197.62 0 .853-.275.517-.612-.697-.696 3.615-4.356 4.819-4.09.433.097 1.554-.16 2.491-.57.937-.41 2.959-.56 4.492-.335 1.94.284 2.649.044 2.33-.788-.254-.659.77-1.865 2.275-2.68 1.504-.815 2.393-1.5 1.976-1.52-.418-.022-.294-.91.275-1.973.637-1.19.673-1.934.094-1.934-.517 0-.872-.906-.789-2.013.172-2.28 3.057-4.201 5.121-3.409.756.29 1.375.08 1.375-.466s.435-.725.967-.396c.532.329.967.156.967-.383s1.557-1.272 3.46-1.629c3.952-.741 7.8.864 8.674 3.617.31.978 1.405 1.779 2.433 1.779 1.027 0 1.868.46 1.868 1.024 0 .563.438.753.974.422.535-.331 1.234.076 1.551.904.318.828.968 1.265 1.444.97.476-.293.865-.073.865.49s.327.972.725.91c2.16-.342 3.62.588 8.46 5.389 2.924 2.901 5.317 5.027 5.317 4.723 0-.304 1.073.15 2.383 1.009 2.983 1.954 4.492 1.999 3.768.11-.306-.797-1.163-1.45-1.904-1.45-.74 0-1.346-.434-1.346-.966s-.544-.858-1.209-.725-1.145-.535-1.068-1.484c.115-1.42-.115-1.515-1.295-.536-1.158.962-1.396.922-1.234-.207.378-2.637-.03-3.815-1.237-3.574-.665.133-1.085-.347-.934-1.066.314-1.493-3.327-4.976-5.202-4.976-.686 0-1.97-.98-2.852-2.176-.995-1.348-1.773-1.742-2.046-1.037-.551 1.426-6.733-1-6.38-2.505.13-.55-.508-.704-1.45-.35-1.47.55-1.515.425-.354-1.002.865-1.063.95-1.632.242-1.632-.597 0-1.085-.466-1.085-1.035 0-.57-.653-1.689-1.45-2.487-1.65-1.649-1.902-3.245-.514-3.245.515 0 .659-.724.32-1.609-.369-.959-.226-1.367.352-1.01.533.33.97-.014.97-.765 0-.75-.464-1.079-1.03-.728-1.497.924-4.456 1.015-4.989.153-.252-.408-.076-.978.392-1.267.467-.289.728-2.063.579-3.942-.18-2.269.082-3.198.78-2.766.664.41.83.074.453-.91-.69-1.796 2.416-3.21 4.37-1.99 2.214 1.383 3.643 1.154 4.66-.746.553-1.032 1.485-1.58 2.072-1.217.62.383.796.22.42-.39-.358-.578.225-1.663 1.294-2.411 1.069-.75 1.704-1.602 1.41-1.895-.293-.293.803-1.483 2.435-2.646 1.632-1.162 2.733-2.492 2.446-2.957-.287-.464.796-1.818 2.406-3.008s2.927-2.678 2.927-3.307c0-.628 1.734-2.556 3.853-4.283 2.12-1.728 3.625-3.51 3.346-3.962-.278-.45.38-1.374 1.464-2.051 1.085-.677 1.972-1.779 1.972-2.449 0-.67.435-1.217.966-1.217.532 0 .967-.57.967-1.268 0-.698.844-2.174 1.876-3.281 1.031-1.107 1.611-2.277 1.289-2.6-.323-.322-.08-.586.541-.586.62 0 1.052-.326.96-.725-.28-1.202 2.348-6.042 3.28-6.042.479 0 .6-.435.272-.967-.329-.532-.137-.967.426-.967s.953-.326.866-.725c-.327-1.493 1.37-6.042 2.254-6.042.505 0 .65-.436.321-.967-.329-.532-.23-.967.22-.967s.89-.94.976-2.088c.087-1.149.506-2.345.931-2.66.425-.313.926-1.44 1.112-2.503.186-1.064.621-2.151.967-2.417.345-.266.78-1.354.966-2.417.187-1.064.84-2.253 1.45-2.644.612-.39.733-.717.269-.725-.464-.008-.302-.667.36-1.465.662-.798.846-1.45.409-1.45-.438 0-.308-.488.289-1.085.597-.596.852-1.69.569-2.43-.284-.739-.036-1.922.55-2.629.587-.707.791-1.56.454-1.898-.337-.337-.063-1.276.61-2.086.673-.81.899-1.474.503-1.474s-.236-.584.357-1.297c.592-.714.809-1.565.482-1.892-.327-.327-.267-1.375.133-2.328.739-1.763.904-2.613 1.84-9.468 1.312-9.599 2.113-16.599 2.8-24.47.292-3.355.995-6.658 1.56-7.34.566-.682.743-1.525.393-1.875-.35-.35-.103-.637.549-.637.651 0 .934-.405.628-.9-.306-.495-.133-1.161.384-1.48.518-.32.696-1.22.396-2.001-.3-.78-.076-1.42.496-1.42.571 0 .806-.608.52-1.352-.285-.744-.073-1.628.472-1.964.545-.337.762-1.207.483-1.934-.279-.727-.035-1.613.542-1.97.576-.356.798-1.052.492-1.547-.306-.495-.271-1.362.078-1.926.348-.564.793-3.5.987-6.526.636-9.888.957-10.415 6.476-10.623 2.6-.097 3.619.264 3.619 1.285 0 .782-.39 1.42-.864 1.42-.489 0-.44 1.676.114 3.855.538 2.12 1.362 3.616 1.83 3.326.47-.29.853.006.853.658s.286.9.636.55c.35-.35 1.2-.17 1.888.402 1.82 1.51 6.108 1.773 7.443.455.633-.624 1.975-1.448 2.982-1.83 1.006-.38 1.57-.952 1.254-1.269-.882-.881 2.084-3.452 3.192-2.767.536.331.974.234.974-.216s1.294-.917 2.875-1.037c2.134-.163 2.74.133 2.352 1.146-.289.752-.053 1.658.524 2.014.577.357.798 1.053.492 1.548-.306.495-.07.9.525.9.594 0 .812.435.483.967-.328.532-.223.967.234.967 1.345 0 5.084 8.506 5.084 11.564 0 1.547-.452 4-1.005 5.453-.574 1.512-.636 2.883-.144 3.205 1.152.756 3.545 5.213 3.288 6.123-.113.399 1.1.725 2.695.725 1.803 0 2.809-.456 2.658-1.207-.304-1.52 8.257-1.335 8.765.19.189.566.741.783 1.228.483.486-.3.884.784.884 2.41 0 1.627.488 2.958 1.085 2.958.783 0 .772.378-.04 1.356-.865 1.042-.836 1.454.123 1.777.687.231-.383.729-2.377 1.105-1.994.376-3.658.99-3.7 1.365-.422 3.894-3.35 7.413-6.21 7.468-.533.01-2.02.754-3.304 1.654-2.23 1.562-2.416 1.542-4.144-.451-1.89-2.179-4.636-3.138-4.636-1.62 0 .485-.461.881-1.024.881s-.697-.543-.298-1.208c.58-.964.426-.966-.757-.008-.816.66-1.723.96-2.017.666-.294-.294-.692 1.45-.885 3.876-.193 2.425-.002 4.41.424 4.41s.667.543.535 1.208c-.13.664.485 2.567 1.37 4.228.884 1.66 1.335 3.292 1.002 3.625-.333.334-.052.606.625.606.716 0 .99.629.656 1.5-.317.826-.191 1.263.278.973 2.019-1.247 1.925 2.704-.106 4.465-1.804 1.565-1.927 2.015-.747 2.744 1.124.695 1.167 1.117.21 2.073-1.655 1.655-1.505 4.357.281 5.042 1.473.566 3.353-2.653 3.353-5.742 0-1.093.372-1.028 1.758.305 1.699 1.636 1.699 1.721 0 2.565-.967.48-1.772 1.35-1.79 1.933-.06 1.946-3.747 5.58-4.924 4.853-.718-.444-.887-.292-.454.41.41.66.076 1.116-.817 1.116-.829 0-1.421.326-1.316.725.106.398-.141 1.704-.548 2.9-.791 2.324-2.521 2.973-2.578.967-.019-.665-.635-.122-1.37 1.205-2.007 3.627.47 5.789 4.063 3.545.759-.474 1.208-.233 1.208.648 0 1.908 2.84 2.866 4.474 1.51 1.009-.838 1.327-.803 1.327.144 0 .685.275.971.61.636.337-.336 1.443-.166 2.46.379 1.694.906 1.83.659 1.618-2.935-.128-2.158-.582-3.924-1.01-3.924-.427 0-.777-.507-.777-1.128 0-.62.283-.845.628-.499.346.346 1.652-.474 2.9-1.822 1.25-1.348 2.272-2.18 2.272-1.849 0 .331.684-.081 1.52-.917.835-.835 2.384-1.519 3.44-1.519 1.057 0 1.681-.39 1.387-.866-.531-.86 2.153-2.49 3.59-2.179.414.09 1.004-.494 1.312-1.297.308-.802 1.12-1.459 1.803-1.459.684 0 1.505-.68 1.824-1.511.319-.832.972-1.27 1.452-.973.48.297 1.122-.11 1.427-.905.304-.795 1.184-1.445 1.954-1.445s1.553-.459 1.74-1.02c.187-.56 1.143-1.137 2.124-1.28.982-.145 2.566-1.298 3.52-2.564 1.407-1.865 1.497-2.493.473-3.31-.832-.665-.991-1.672-.464-2.944.681-1.647.81-1.683.868-.242.037.93.575 1.692 1.196 1.692.62 0 .858-.27.529-.598-.77-.77 1.708-3.269 3.241-3.269.643 0 3.096-1.776 5.45-3.946 2.407-2.219 4.875-3.718 5.637-3.426.745.286 1.617.097 1.936-.42.32-.518.986-.69 1.481-.384.495.305.9.095.9-.468 0-.563.653-1.024 1.45-1.024.798 0 1.45-.435 1.45-.967s-.46-.967-1.023-.967-.783-.39-.489-.865c.294-.476-.12-1.117-.919-1.423-.8-.307-1.34-.897-1.203-1.31.138-.414-.135-.824-.608-.911-.472-.088-1.227-.74-1.677-1.45-1.173-1.852-1.066-19.177.119-19.177.532 0 .967-.653.967-1.45 0-.798.46-1.45 1.024-1.45.563 0 .755-.436.426-.968-.329-.531-.137-.966.426-.966s1.024-.653 1.024-1.45c0-.798.46-1.45 1.024-1.45.563 0 .785-.386.494-.858-.705-1.141 2.007-3.336 3.207-2.594 1.338.827 2.458-1.354 1.294-2.518-.644-.645-1.183-.616-1.616.084-1.021 1.653-2.47 1.23-2.47-.721 0-.975-.652-1.773-1.45-1.773-.797 0-1.45.41-1.45.91s-.715.634-1.59.298c-1.747-.67-5.448 2.083-4.614 3.433.285.46-.16.838-.99.838-.829 0-1.507-.46-1.507-1.024 0-.563-.374-.793-.83-.51-.872.538-5.917-1.474-5.93-2.365-.01-.747-4.25-.448-5.615.396-.661.408-1.16.207-1.16-.468 0-.652-.296-.89-.658-.527-.865.865-6.11-4.183-6.11-5.881 0-.724 1.197-1.839 2.66-2.478 1.88-.822 2.658-1.868 2.658-3.579 0-1.33-.312-2.65-.693-2.937-.38-.286-.1-1.66.622-3.053.769-1.482.956-2.89.452-3.394-.474-.474-1.05-3.015-1.278-5.648-.229-2.633-1.145-6.229-2.036-7.99-1.538-3.04-1.53-3.272.173-4.562.986-.747 1.392-1.372.902-1.389-.49-.017-1.577.573-2.417 1.312-.84.738-3.049 1.635-4.91 1.992-2.492.479-3.001.383-1.933-.36.797-.557 2.135-1.018 2.973-1.026 1.75-.017 5.728-3.93 5.728-5.636 0-.63.524-1.038 1.164-.905.64.133 1.185-.266 1.209-.886.024-.62.315-1.399.646-1.73.331-.331.376-2.608.1-5.06-.395-3.5-.233-4.29.755-3.68.81.501 1.023.398.598-.29-.738-1.194 2.61-8.062 3.893-7.982.45.028.82-.376.82-.898 0-.521.978-1.634 2.175-2.472 1.196-.838 2.175-1.309 2.175-1.047s1.217-.692 2.706-2.12c1.488-1.429 2.656-2.815 2.596-3.08-.197-.871 4.226-4.652 4.786-4.092.3.3.547-.034.547-.743s.286-1.002.636-.653c.35.35 1.22.152 1.933-.44.714-.592 1.298-.753 1.298-.357s.653.179 1.45-.483c.798-.662 1.45-.902 1.45-.533s.688-.017 1.528-.857c.84-.84 1.929-1.281 2.417-.979.49.302.89.063.89-.532 0-.594.434-.812.966-.483.532.329.967.137.967-.426s.653-1.024 1.45-1.024c.798 0 1.45-.388 1.45-.862 0-.783 3.95-2.214 5.447-1.973.342.055.887-.312 1.213-.815 1.107-1.712 6.642-4.018 8.696-3.623 1.126.217 2.047-.062 2.047-.62 0-.559.624-.776 1.387-.483.764.293 1.53.108 1.703-.412.173-.52 2.485-1.109 5.138-1.31 2.653-.201 4.823-.46 4.823-.575 0-.55 5.008-.742 6.285-.24 2.649 1.041 3.867 1.084 3.867.135 0-.516.435-.669.967-.34.531.328.966.166.966-.36 0-.539 2.332-.882 5.316-.783 2.924.097 5.317.575 5.318 1.062 0 .487.284.603.63.257.347-.346 1.108.01 1.693.79 1.128 1.51 5.413.992 5.413-.653 0-.5.435-.642.966-.313.532.328.967.136.967-.427s.326-.972.725-.91c.4.064.943.03 1.209-.073 2.398-.935 7.525-1.784 14.502-2.402 2.393-.212 5.502-.828 6.91-1.367 1.407-.54 2.821-.72 3.142-.4.32.321.583.05.583-.602 0-.651.435-.916.966-.587.532.329.967.206.967-.273 0-1.014 7.673-3.495 8.44-2.728.283.284 1.302.095 2.263-.42 1.148-.613 1.957-.596 2.357.05.335.542 1.014.735 1.509.43.495-.307.9-.08.9.501 0 .727.555.76 1.777.107 1.983-1.061 5.957-.359 5.957 1.053 0 .5.386.672.858.38 1.458-.9 3.484 2.263 2.243 3.504-.784.783-.683 2.001.378 4.54.797 1.907 1.22 4.385.938 5.505-.343 1.367.267 2.766 1.857 4.26 1.302 1.224 2.097 2.664 1.765 3.2-.343.555-.121.678.513.286.614-.38 1.116-.316 1.116.14s1.523 1.38 3.384 2.053 3.384 1.617 3.384 2.098c0 .48.696.606 1.548.28.851-.327 1.925.012 2.387.755.685 1.1 1.2 1.126 2.79.14 1.072-.664 2.133-1.208 2.356-1.208.592 0-.526 4.178-1.431 5.35-.425.55-.47 1.464-.102 2.03 1.046 1.612 4.957 3.408 6.007 2.76.52-.322.947-.139.947.408 0 .546.608.76 1.352.474.744-.285 1.615-.095 1.935.423.32.518 1.452.715 2.515.437 1.722-.45 1.932-.029 1.932 3.879 0 2.411.25 5.033.554 5.826.34.888-.154 1.666-1.29 2.027-1.013.321-1.88 1.122-1.925 1.779-.046.657-.328 2.257-.625 3.557-.315 1.371.024 2.993.807 3.867.845.942 1.372 3.854 1.41 7.789.035 3.456.32 7.59.637 9.184.316 1.596.046 4.206-.6 5.801-.646 1.595-1.258 3.553-1.36 4.35-.378 2.959-1.634 5.802-2.564 5.802-.527 0-.69.435-.361.966.328.532.137.967-.427.967-.563 0-1.023.653-1.023 1.45 0 .798-.461 1.45-1.024 1.45s-.755.436-.427.967c.33.532.137.967-.426.967s-1.024.653-1.024 1.45c0 .798-.46 1.45-1.024 1.45-.563 0-.753.439-.422.974.331.536-.11 1.247-.981 1.582-1.108.424-1.411 1.294-1.01 2.893.337 1.345.144 2.286-.469 2.286-.573 0-.773.435-.444.967.328.532.229.967-.221.967s-.946 1.414-1.102 3.142c-.592 6.577-1.105 16.859-1.064 21.359.066 7.23-.565 8.407-4.196 7.82l-5.019-.81c-1.063-.17-2.477.119-3.142.643-.835.659-1.209.568-1.209-.293 0-.685-.253-.993-.562-.684-.309.31-2.05-.059-3.867-.818-2.3-.962-3.305-1.048-3.305-.283 0 .801-.346.811-1.28.036-.937-.778-1.595-.747-2.457.115-.834.834-1.377.87-1.862.123-.798-1.228-4.069-1.404-4.069-.218 0 .443-.6.805-1.332.805-2.331 0-3.968 3.047-3.764 7.006.213 4.141 1.61 6.53 3.821 6.53.764 0 1.12.436.79.97-.33.533-1.678.7-2.996.369-1.318-.331-2.327-.224-2.243.238.36 1.983-.173 2.446-1.526 1.324-1.23-1.021-1.417-.82-1.24 1.331.116 1.394.507 2.535.87 2.535s.594 1.917.514 4.26c-.08 2.342.13 4.088.467 3.88.336-.209 1.807.562 3.269 1.711 2.098 1.65 3.751 2.04 7.848 1.85 4.253-.196 5.19.045 5.19 1.338 0 .867.385 1.339.856 1.048.47-.29 2.246-.044 3.945.548 2.36.823 3.63.787 5.382-.15 1.261-.675 2.205-1.654 2.098-2.176-.108-.522.408-1.169 1.147-1.437.823-.299 1.082-.065.668.604-.371.6-.168 1.092.452 1.092s.883.639.583 1.42c-.3.78-.121 1.68.396 2 .517.32.688.99.38 1.488-.308.499.103 1.161.914 1.473.811.31 1.74 1.402 2.064 2.424.325 1.022.994 1.609 1.487 1.304.494-.305.952-.094 1.018.469.294 2.483.403 2.836 1.088 3.521 1.204 1.204.816 4.124-.656 4.948-1.392.778-1.52 1.081-1.52 3.604 0 .76-.553 1.956-1.23 2.659-1.436 1.492-1.715 7.561-.346 7.561.513 0 .649.284.303.63-.346.346.087 1.153.963 1.794 2.625 1.92.924 4.168-2.957 3.908-3.187-.213-5.108 1.275-4.62 3.578.084.399-.307.725-.87.725-.564 0-.755.435-.427.967.329.532.137.967-.426.967s-.915.544-.782 1.208c.133.665-.629 1.271-1.692 1.348-1.064.076-2.503.185-3.2.241-.695.057-1.032.48-.747.94.285.461-.313 1.59-1.328 2.509-1.015.918-1.649 2.183-1.408 2.81.68 1.773-4.798 4.479-9.07 4.479-2.46 0-3.835.436-3.807 1.209.12 3.235-.469 4.373-2.918 5.637-1.462.754-3.129 1.81-3.703 2.347-1.502 1.403-.562 3.375 1.608 3.375 1.02 0 1.853.461 1.853 1.024s.435.755.967.427c.532-.329.967-.112.967.483 0 .594.402.833.893.53.49-.304 1.82.75 2.953 2.341 1.134 1.592 2.363 2.85 2.733 2.798.37-.054 1.222-.046 1.896.017 1.659.155 1.179 5.916-.493 5.916-1.26 0-2.137 1.433-2.534 4.139-.227 1.544-3.502 5.162-3.536 3.906-.012-.437-.849.282-1.86 1.598-1.821 2.37-1.857 2.375-3.892.533-2.286-2.07-4.861-2.775-4.861-1.333 0 .516-.436.67-.967.341-.532-.329-.967-.064-.967.588 0 .651-.248.936-.552.633-.303-.304-1.686.037-3.073.756-1.386.72-2.878 1.087-3.315.817-.437-.27-.794.016-.794.636s-.67.87-1.487.557c-.845-.324-1.724.046-2.035.858-.302.785-.858 1.236-1.238 1.002-.379-.234-1.3.42-2.045 1.456-1.578 2.188-2.97 2.277-7.94.503-3.32-1.185-4.588-.874-2.982.733 1.035 1.034 1.244 5.48.258 5.48a.891.891 0 0 1-.9-.877c0-.482-.944-.63-2.097-.328-1.663.435-1.97.217-1.48-1.057.537-1.402-1.122-2.262-2.63-1.364-.223.133-1.434-.725-2.692-1.906-1.81-1.7-3.01-2.031-5.746-1.587-3.83.621-7.592-.889-7.592-3.048 0-1.46-4.47-3.088-5.54-2.018-.338.338-.1 1.13.529 1.76.629.629 1.144 1.927 1.144 2.884 0 .957.488 1.74 1.085 1.74.75 0 .713.448-.118 1.45-1.45 1.746-4.019 1.88-5.608.29-.638-.638-1.16-.802-1.16-.365 0 .437-.686.226-1.524-.47-1.171-.972-1.69-.996-2.241-.103-1.15 1.86-7.712 4.889-8.096 3.737-.52-1.559-2.64.182-2.64 2.167 0 .967.647 2.296 1.439 2.953.791.657 1.2 1.58.91 2.052-.292.472-.142.857.332.857 1.026 0 .9 3.508-.165 4.573-.41.41-1.143.745-1.63.745-1.78 0-.906 1.942 1.008 2.242 1.085.17 1.972.74 1.972 1.266s.435.687.967.359c.532-.329.967-.111.967.483 0 .595.386.843.857.551.472-.291 1.395.118 2.052.91.965 1.163.924 1.44-.213 1.44-.774 0-1.407.652-1.407 1.45 0 .797.302 1.45.672 1.45.369 0 .454 1.196.19 2.659-.265 1.462-.17 2.37.21 2.018.902-.835 9.24 2.006 9.24 3.148 0 .482-.46.876-1.023.876-.564 0-.744.454-.4 1.01.343.555-.02 1.992-.808 3.193-1.357 2.071-1.213 2.374 2.786 5.851 2.32 2.017 4.184 3.952 4.144 4.3-.184 1.58 1.405 4.909 2.13 4.46 1.617-.998 4.203 6.441 3.878 11.157-.055.798-.096 2.462-.09 3.698.004 1.236-.423 3.055-.951 4.042-.708 1.321-.56 2.193.557 3.311.834.835 1.124 1.517.643 1.517-1.022 0-.951 2.887.114 4.61.41.663.273 1.191-.308 1.191-.575 0-1.534 1.074-2.132 2.387-.599 1.312-1.428 2.176-1.844 1.92-.415-.258-1.034.409-1.374 1.48-.34 1.071-1.05 1.948-1.577 1.948-.527 0-.69.435-.36.966.328.532.11.967-.484.967-.595 0-.81.438-.48.974.332.535-.075 1.233-.903 1.551-.829.318-1.294.922-1.034 1.342.26.42-.178 1.014-.972 1.319-.795.305-1.445 1.205-1.445 2 0 .796-.929 1.944-2.064 2.552-1.465.784-1.722 1.317-.885 1.834.894.552.93 1.637.147 4.47-.831 3.011-.757 4.017.382 5.156 1.243 1.243 1.9 1.143 5.386-.816 2.915-1.638 4.256-1.945 5.046-1.155 1.001 1.001-.023 1.53-2.361 1.22-.349-.045-.888.578-1.198 1.387-.31.808-.183 1.234.282.947.466-.288 1.359.094 1.985.849.908 1.094.718 1.597-.94 2.485-1.143.611-2.31.88-2.594.596-.284-.283-1.152.12-1.929.898-.777.777-1.808 1.169-2.29.87-.484-.298-.635.094-.336.87.332.867-.2 1.65-1.372 2.022-1.053.334-2.146 1.21-2.429 1.947-.283.738-2 2.046-3.816 2.908-2.47 1.172-3.591 2.53-4.448 5.39-.638 2.128-1.756 3.824-2.523 3.824-1.439 0-3.673-3.252-2.82-4.104.27-.27-.197-.755-1.037-1.078-.906-.347-1.762.02-2.1.903-.315.82-1.179 1.257-1.92.972-1.071-.411-1.136-.12-.314 1.415.569 1.062.801 2.308.517 2.769-.285.46.125 1.37.911 2.023.786.652 1.21 1.542.94 1.976-.268.435-.065 1.052.452 1.372.518.32.696 1.22.396 2-.578 1.508 1.123 2 2 .58.286-.462 2.955-.861 5.932-.888 4.426-.04 5.31.216 4.855 1.402-.306.798-.556 1.876-.556 2.395 0 .52-.544.618-1.209.22-.862-.519-.838-.27.083.866.71.877 1.011 2.048.668 2.603-.343.555.055 1.01.884 1.01s1.507.434 1.507.966.327.915.725.852c.4-.063 2.03-.049 3.626.031 2.438.122 2.669.333 1.45 1.323-1.568 1.273-2.045 5.653-.717 6.583.449.314.272 1.765-.394 3.226-1.123 2.464-1.3 2.531-2.466.936-.86-1.175-1.257-1.304-1.257-.406 0 .722-.27 1.043-.598.714-.33-.33-1.305.107-2.167.97-1.15 1.15-1.248 1.674-.368 1.968 1.634.545 1.506 2.003-.338 3.848-1.186 1.186-1.709 1.262-2.283.333-.568-.92-.876-.861-1.301.247a1.54 1.54 0 0 0 .893 2.008c.838.321 1.155 1.07.75 1.772-.384.668-.343.893.092.498 1.511-1.368 3.427 1.252 2.365 3.236-1.198 2.238-4.352 2.405-5.17.273-.452-1.176-.915-1.297-1.885-.492-.707.587-1.572.78-1.922.431-.35-.35-.636-.129-.636.492 0 1.667-3.835 1.37-4.494-.347zm-222.965-131.56c-.321-.321-1.155-.356-1.853-.076-.771.308-.542.537.584.584 1.02.042 1.59-.187 1.27-.508zm6.546-.383c-.328-.532-1.115-.96-1.749-.952-.692.01-.572.389.299.952 1.857 1.2 2.192 1.2 1.45 0zm-19.692-4.198c-.593-.713-.79-1.583-.441-1.933.35-.35-.089-.636-.975-.636-1.896 0-2.076 1.082-.451 2.707 1.59 1.59 3.202 1.472 1.867-.138zm51.113-18.16c-.797-.334-1.925-.229-2.506.233-.58.461-1.412.516-1.847.122-.435-.394-.57-.282-.301.25.269.532.76 1.727 1.09 2.656.548 1.54.795 1.498 2.808-.483 1.822-1.794 1.953-2.278.756-2.778zm26.104-5.736c0-.563.342-.813.76-.554.417.258.759-.337.759-1.323 0-.985-.342-1.58-.76-1.322-.417.258-.76.047-.76-.469 0-.987-2.426-.938-3.433.07-.778.777 1.303 4.622 2.501 4.622.513 0 .933-.46.933-1.024z" transform="matrix(.27298 0 0 .27298 114.134 59.516)"/><path style="fill:none;fill-opacity:1;stroke:#000;stroke-width:3.66321;stroke-dasharray:none;stroke-opacity:1" d="M-355.642 173.781c-.328-.532-.028-.973.668-.981.933-.011.891-.252-.159-.916-.92-.582-1.656-.527-2.077.156-.36.58-1.35.789-2.201.462-.851-.326-1.548-.21-1.548.257 0 .976-1.851.838-3.625-.27-1.454-.909-1.627-5.475-.208-5.475.657 0 .622-.709-.104-2.065-.883-1.649-1.275-1.795-1.953-.725-.74 1.17-1.244.6-1.04-1.176.037-.32-1.014-.375-2.336-.123-1.426.273-3.11-.18-4.14-1.112-.955-.864-2.027-1.28-2.383-.925-.356.356-.647.18-.647-.39 0-.57-.87-.81-1.933-.532-1.124.294-1.934.03-1.934-.631 0-.625-.435-.868-.967-.54-.531.33-.966.065-.966-.587 0-.651-.287-.898-.636-.548-.35.35-1.302.096-2.115-.564-1.237-1.004-1.377-.93-.856.46.342.914.206 1.918-.303 2.233-.508.314-.924.086-.924-.508 0-.682-.752-.552-2.045.354-1.124.788-2.623 1.21-3.331.938-1.049-.402-1.076.066-.144 2.534 1.398 3.704.129 4.836-5.447 4.859-2.903.011-3.826-.406-4.22-1.908-.276-1.058-.842-1.713-1.257-1.456-.416.257-1.006-.183-1.31-.978-.305-.794-1.33-1.451-2.277-1.46-1.466-.012-1.506-.154-.272-.951.799-.516.95-.944.339-.952-.75-.01-1.047-2.22-.913-6.783.12-4.086-.192-6.767-.788-6.767-2.145 0 2.19-3.022 4.83-3.366 1.549-.203 2.925-.452 3.058-.556.133-.103.568-.257.967-.342.398-.085 1.646-.668 2.773-1.295 1.126-.628 2.323-.866 2.659-.53.335.336.61.154.61-.404 0-.992.474-.863 9.426 2.575 1.729.664 3.143 1.49 3.145 1.837 0 .347 1.321.678 2.934.735 1.612.058 3.895.958 5.073 2 1.178 1.042 3.788 2.009 5.8 2.148 3.546.244 7.068 1.083 10.642 2.533 1.029.418 1.617.302 1.45-.286-.155-.544.076-.923.512-.844.436.08 1.224-.625 1.751-1.567.527-.941 1.367-1.46 1.866-1.151.499.308.907.1.907-.463 0-.563.641-1.024 1.425-1.024 1.561 0 4.669-5.186 3.693-6.162-.334-.333.554-.606 1.972-.606s2.578.461 2.578 1.024.404.774.897.47c.861-.533 2.59 3.051 2.195 4.549-.175.664.414.831 3.917 1.112.665.053 2.226 1.293 3.47 2.755 1.244 1.462 2.766 2.624 3.384 2.582.755-.051.725-.236-.092-.566-.668-.269-.927-.954-.576-1.523.353-.57.188-.755-.368-.411-.553.342-1.51.014-2.127-.728-.906-1.093-.48-1.561 2.234-2.457 4.846-1.6 8.324-2.123 8.415-1.267.044.41.287 2.018.54 3.575.312 1.923-.023 3.1-1.047 3.674-.828.463-1.506 1.278-1.506 1.81 0 .53-1.523 2.534-3.384 4.45-1.86 1.916-3.384 3.152-3.384 2.745 0-.406-.855.289-1.901 1.544-1.046 1.255-1.916 1.86-1.934 1.342-.017-.517-.729.055-1.58 1.271-1.043 1.488-2.387 2.146-4.11 2.01-3.082-.242-5.67.77-8.045 3.145-1.86 1.86-4.236 2.45-3.216.799.329-.532.137-.967-.426-.967s-1.024.606-1.024 1.347c0 .74-.688 1.61-1.53 1.933-2.005.77-2.12.754-2.82-.38z" transform="matrix(.27298 0 0 .27298 114.134 59.516)"/></g></svg>