<svg width="60" height="82" viewBox="0 0 60 82" fill="none" xmlns="http://www.w3.org/2000/svg">
<g clip-path="url(#clip0_405_5961)">
<path d="M39.6067 54.2354C34.432 54.2354 29.4562 53.6384 25.7742 52.6432C21.4951 51.449 19.4053 49.7573 19.4053 47.767C19.4053 45.6772 21.5946 44.0849 25.7742 42.8908C27.864 42.2937 30.2524 41.8956 32.9393 41.5971L34.0339 41.4976L33.4368 40.5024C26.5703 28.8592 22.9878 20.5995 22.9878 16.5194C23.0873 7.36408 30.5509 0 39.6067 0C48.7621 0 56.1261 7.36408 56.1261 16.5194C56.1261 20.5 52.5436 28.8592 45.6771 40.5024L45.08 41.4976L46.1747 41.5971C48.8616 41.8956 51.2499 42.2937 53.3397 42.8908C57.6189 44.0849 59.7087 45.7767 59.7087 47.767C59.7087 49.8568 57.5193 51.449 53.3397 52.6432C49.7572 53.7379 44.881 54.2354 39.6067 54.2354Z" fill="#BCC9DA" fill-opacity="0.08"/>
<path d="M27.7646 82.0002C20.5 82.0002 13.6335 81.005 8.45874 79.3133C1.49272 76.8254 0 73.9395 0 71.9492C0 69.3618 2.38835 67.471 4.47816 66.3764C4.57767 66.2769 4.7767 66.2769 4.87621 66.2769C5.17476 66.2769 5.57282 66.4759 5.67233 66.7744C5.77184 66.9735 5.77184 67.272 5.77184 67.471C5.67233 67.6701 5.57282 67.8691 5.37379 68.0681C3.08495 69.3618 1.89078 70.755 1.89078 72.0487C1.89078 74.039 4.57767 76.1288 9.15534 77.6215C14.1311 79.3133 20.7985 80.2089 27.8641 80.2089C34.9296 80.2089 41.5971 79.3133 46.5728 77.6215C51.1505 76.1288 53.8374 74.039 53.8374 72.0487C53.8374 70.755 52.5437 69.3618 50.3544 68.0681C50.1553 67.9686 49.9563 67.7696 49.9563 67.471C49.8568 67.272 49.9563 66.9735 50.0558 66.7744C50.2549 66.4759 50.5534 66.2769 50.8519 66.2769C51.051 66.2769 51.1505 66.2769 51.25 66.3764C53.3398 67.471 55.7282 69.3618 55.7282 71.9492C55.7282 73.9395 54.2354 76.9249 47.2694 79.3133C41.8956 81.005 35.0291 82.0002 27.7646 82.0002Z" fill="#9FCCFF"/>
<path d="M27.7644 74.9344C23.0872 74.9344 18.7086 74.4368 15.4246 73.4417C11.7426 72.4465 9.85181 71.0533 9.85181 69.3616C9.85181 67.6698 11.7426 66.2766 15.4246 65.2815C17.2159 64.7839 19.4052 64.3858 21.7936 64.0873L23.2863 63.8883L22.4902 62.5946C16.3203 52.1456 13.1358 44.7815 13.1358 41.199C13.1358 33.1383 19.7037 26.5703 27.7644 26.5703C35.8251 26.5703 42.3931 33.1383 42.3931 41.199C42.3931 44.7815 39.1091 52.1456 33.0387 62.5946L32.2426 63.8883L33.7353 64.0873C36.1237 64.3858 38.313 64.6844 40.1042 65.2815C43.7863 66.2766 45.677 67.6698 45.677 69.3616C45.677 71.0533 43.7863 72.4465 40.1042 73.4417C36.8203 74.4368 32.4416 74.9344 27.7644 74.9344ZM23.5848 65.381C20.8979 65.58 18.5096 65.9781 16.4198 66.4757C13.8324 67.1723 12.0411 67.9684 11.444 68.864L11.046 69.3616L11.444 69.8591C12.0411 70.7548 13.8324 71.5509 16.4198 72.2475C19.5047 73.0436 23.5848 73.4417 27.7644 73.4417C31.944 73.4417 36.0241 73.0436 39.1091 72.2475C41.6965 71.5509 43.4877 70.7548 44.0848 69.8591L44.4829 69.3616L44.0848 68.864C43.4877 67.9684 41.6965 67.1723 39.1091 66.4757C37.1188 65.9781 34.6309 65.58 31.944 65.381H31.347L30.5508 66.6747C29.9537 67.6698 28.8591 68.2669 27.7644 68.2669C26.5703 68.2669 25.5751 67.6698 24.978 66.6747L24.1819 65.2815L23.5848 65.381ZM27.7644 28.063C20.4999 28.063 14.6285 33.9344 14.6285 41.199C14.6285 44.7815 18.9076 54.0363 26.1722 65.8786C26.4707 66.4756 27.0678 66.7742 27.7644 66.7742C28.461 66.7742 28.9586 66.4756 29.3567 65.8786C36.6212 54.0363 40.9003 44.7815 40.9003 41.199C40.9003 33.9344 35.029 28.063 27.7644 28.063ZM27.7644 45.3786C24.8785 45.3786 22.4902 42.9902 22.4902 40.1043C22.4902 37.2184 24.8785 34.83 27.7644 34.83C30.6503 34.83 33.0387 37.2184 33.0387 40.1043C33.0387 43.0897 30.6503 45.3786 27.7644 45.3786ZM27.7644 36.3227C25.6746 36.3227 23.8834 38.0145 23.8834 40.2038C23.8834 42.3931 25.5751 44.0849 27.7644 44.0849C29.9537 44.0849 31.6455 42.3931 31.6455 40.2038C31.6455 38.0145 29.9537 36.3227 27.7644 36.3227Z" fill="#F3F3F3"/>
</g>
<defs>
<clipPath id="clip0_405_5961">
<rect width="59.9078" height="82" fill="white"/>
</clipPath>
</defs>
</svg>
