<svg width="60" height="82" viewBox="0 0 60 82" fill="none" xmlns="http://www.w3.org/2000/svg">
<g clip-path="url(#clip0_405_5214)">
<path opacity="0.08" d="M60.0002 5.30647V52.3639C60.0002 53.5653 59.0987 54.4664 57.8967 54.4664H12.5211V54.2662H12.4209C11.2189 54.2662 10.3174 53.3651 10.3174 52.1636V5.20635C10.3174 4.00488 11.2189 3.10378 12.4209 3.10378H18.9317V0.901099C18.9317 0.400488 19.4326 0 19.8332 0C20.3341 0 20.7347 0.50061 20.7347 0.901099V3.30403H49.7832V0.901099C49.7832 0.400488 50.284 0 50.6847 0C51.1855 0 51.5862 0.50061 51.5862 0.901099V3.30403H58.097C59.0987 3.20391 60.0002 4.10501 60.0002 5.30647Z" fill="#BCC9DA"/>
<path d="M2.20367 82V81.7998H1.90317C0.801335 81.7998 0 80.8987 0 79.8975V32.74C0 31.6386 0.901502 30.8376 1.90317 30.8376H8.61436V28.5348C8.61436 28.2345 9.01503 27.834 9.31553 27.834C9.61603 27.834 10.0167 28.2345 10.0167 28.5348V31.138H39.4658V28.5348C39.4658 28.2345 39.8664 27.834 40.1669 27.834C40.4674 27.834 40.8681 28.2345 40.8681 28.5348V31.138H47.5793C48.6811 31.138 49.4825 32.0391 49.4825 33.0403V80.0977C49.4825 81.1991 48.581 82 47.5793 82H2.20367ZM1.30217 79.8975C1.30217 80.298 1.60267 80.5983 2.00334 80.5983H47.379C47.7796 80.5983 48.0801 80.298 48.0801 79.8975V41.6508H1.30217V79.8975ZM1.803 32.2394C1.40234 32.2394 1.202 32.4396 1.202 32.6398V40.2491H47.98V32.74C47.98 32.3395 47.98 32.3395 47.5793 32.3395H40.8681V34.0416C40.8681 34.3419 40.4674 34.7424 40.1669 34.7424C39.8664 34.7424 39.3656 34.442 39.3656 34.0416V32.1392H9.91653V33.8413C9.91653 34.1417 9.51586 34.5422 9.21536 34.5422C8.91486 34.5422 8.51419 34.1417 8.51419 33.8413V32.1392H1.803V32.2394Z" fill="#F3F3F3"/>
<path d="M19.0321 73.8903L29.9503 51.9635V50.9623H17.1289V49.3604H32.2541V51.0624L21.1356 73.8903H19.0321Z" fill="#9FCCFF"/>
</g>
<defs>
<clipPath id="clip0_405_5214">
<rect width="60" height="82" fill="white"/>
</clipPath>
</defs>
</svg>
