<svg width="60" height="82" viewBox="0 0 60 82" fill="none" xmlns="http://www.w3.org/2000/svg">
<g clip-path="url(#clip0_405_5235)">
<path opacity="0.08" d="M13.0869 54.7668V0H45.503L59.9997 13.4164V54.8669L13.0869 54.7668Z" fill="#BCC9DA"/>
<path d="M0 82.0001V27.6338H32.2148L46.6107 41.0501V82.0001H0ZM1.4094 80.9989H45.1007V41.8511H31.2081V28.9354H1.4094V80.9989ZM32.4161 40.2492H44.1946L32.4161 29.6362V40.2492Z" fill="#F3F3F3"/>
<path d="M8.35534 64.6788C7.85199 64.6788 7.54997 64.3785 7.54997 63.8779C7.54997 63.3773 7.85199 63.0769 8.35534 63.0769H27.8855C28.3889 63.0769 28.6909 63.5775 28.6909 63.8779C28.6909 64.3785 28.3889 64.6788 27.8855 64.6788H8.35534ZM8.35534 58.4713C7.85199 58.4713 7.54997 58.1709 7.54997 57.6703C7.54997 57.1697 7.85199 56.8693 8.35534 56.8693H27.8855C28.3889 56.8693 28.6909 57.1697 28.6909 57.6703C28.6909 58.1709 28.3889 58.4713 27.8855 58.4713H8.35534ZM8.35534 52.1636C7.85199 52.1636 7.54997 51.8632 7.54997 51.3626C7.54997 50.862 7.85199 50.5616 8.35534 50.5616H27.8855C28.3889 50.5616 28.6909 50.862 28.6909 51.3626C28.6909 51.8632 28.3889 52.1636 27.8855 52.1636H8.35534ZM8.35534 45.956C7.85199 45.956 7.54997 45.6556 7.54997 45.155C7.54997 44.6544 7.85199 44.3541 8.35534 44.3541H27.8855C28.3889 44.3541 28.6909 44.8547 28.6909 45.155C28.6909 45.6556 28.3889 45.956 27.8855 45.956H8.35534ZM8.35534 39.7484C7.85199 39.7484 7.34863 39.4481 7.34863 38.9475C7.34863 38.3467 7.85199 38.1465 8.35534 38.1465H16.107C16.6104 38.1465 16.9124 38.4469 16.9124 38.9475C16.9124 39.4481 16.6104 39.7484 16.107 39.7484H8.35534Z" fill="#9FCCFF"/>
</g>
<defs>
<clipPath id="clip0_405_5235">
<rect width="60" height="82" fill="white"/>
</clipPath>
</defs>
</svg>
