<svg width="60" height="82" viewBox="0 0 60 82" fill="none" xmlns="http://www.w3.org/2000/svg">
<g clip-path="url(#clip0_405_5949)">
<path d="M39.4149 52.642C39.2049 52.642 38.8898 52.5339 38.7848 52.3177L9.06247 21.8351C8.95744 21.6189 8.85242 21.4027 8.85242 21.1865C8.85242 20.9703 8.95744 20.646 9.16749 20.5379L28.7023 0.324283C28.9123 0.108094 29.1224 0 29.4375 0C29.6475 0 29.9626 0.108094 30.0676 0.324283L42.7757 13.4037L59.5798 30.6988C59.7899 30.915 59.8949 31.1312 59.8949 31.3474C59.8949 31.5636 59.7899 31.8878 59.5798 31.9959L40.0451 52.3177C39.835 52.5339 39.625 52.642 39.4149 52.642Z" fill="#BCC9DA" fill-opacity="0.08"/>
<path d="M37.5738 77.8493C37.3771 77.8493 37.1804 77.748 36.9836 77.6468L9.3443 49.0986C9.24594 48.9974 9.14758 48.7949 9.14758 48.4912C9.14758 48.2888 9.24594 48.0863 9.3443 47.8838L27.7377 28.953C27.8361 28.8517 28.0328 28.7505 28.3279 28.7505C28.5246 28.7505 28.7214 28.8517 28.9181 28.953L40.8197 41.2023L56.5574 57.3999C56.7541 57.5011 56.7541 57.7036 56.7541 58.0073C56.7541 58.2098 56.6558 58.4122 56.5574 58.6147L38.164 77.6468C37.9673 77.748 37.7705 77.8493 37.5738 77.8493ZM38.3607 75.1159L54.3935 58.7159H38.3607V75.1159ZM36.7869 75.1159V58.7159H32.6558C29.9017 58.7159 27.6394 56.3875 27.6394 53.553V49.3011H11.705L36.7869 75.1159ZM29.3115 53.553C29.3115 55.4764 30.8853 57.0962 32.7541 57.0962H53.9017L39.7377 42.5184L39.541 42.3159H39.4427L29.3115 31.7875V53.553ZM11.705 47.6814H27.6394V31.2814L11.705 47.6814Z" fill="#F3F3F3"/>
<path d="M21.6393 78.9629H4.52457C3.83604 78.9629 3.34424 79.5703 3.34424 80.1777C3.34424 80.7851 3.9344 81.3925 4.52457 81.3925H21.6393C22.3278 81.3925 22.8196 80.7851 22.8196 80.1777C22.8196 79.5703 22.3278 78.9629 21.6393 78.9629Z" fill="#9FCCFF"/>
<path d="M16.3278 70.9653H9.54092C8.8524 70.9653 8.3606 71.5727 8.3606 72.1801C8.3606 72.8888 8.95076 73.395 9.54092 73.395H16.3278C17.0163 73.395 17.5081 72.7876 17.5081 72.1801C17.6065 71.4715 17.0163 70.9653 16.3278 70.9653Z" fill="#9FCCFF"/>
<path d="M8.36066 64.0815H1.18033C0.491803 64.0815 0 64.6889 0 65.2964C0 65.9038 0.590164 66.5112 1.18033 66.5112H8.36066C9.04918 66.5112 9.54098 65.9038 9.54098 65.2964C9.54098 64.5877 9.04918 64.0815 8.36066 64.0815Z" fill="#9FCCFF"/>
</g>
<defs>
<clipPath id="clip0_405_5949">
<rect width="60" height="82" fill="white"/>
</clipPath>
</defs>
</svg>
