<svg width="60" height="82" viewBox="0 0 60 82" fill="none" xmlns="http://www.w3.org/2000/svg">
<g clip-path="url(#clip0_405_5224)">
<path opacity="0.08" d="M60 0.901099V53.6654C60 54.2662 59.5994 54.5665 59.0985 54.5665H10.6177V54.7668C10.2171 54.6667 9.81641 54.2662 9.81641 53.8657V0.901099C9.81641 0.400488 10.2171 0 10.7179 0H58.9984C59.5994 0 60 0.50061 60 0.901099Z" fill="#BCC9DA"/>
<path d="M0.500835 82.0001C0.200334 81.7998 0 81.5996 0 81.2992V28.3346C0 27.9342 0.400668 27.6338 0.701169 27.6338H48.9816C49.4825 27.6338 49.783 28.0343 49.783 28.3346V81.099C49.783 81.5996 49.3823 81.7998 49.0818 81.7998L0.500835 82.0001ZM1.5025 80.3981H48.581V29.0355H31.4524V46.657C31.4524 47.0575 31.0518 47.3578 30.7513 47.3578C30.6511 47.3578 30.5509 47.3578 30.3506 47.2577L25.1419 44.3542L19.4324 47.1576C19.3322 47.2577 19.2321 47.2577 19.0317 47.2577C18.8314 47.2577 18.7312 47.1576 18.6311 47.0575C18.5309 46.9574 18.3306 46.657 18.3306 46.5569V29.0355H1.5025V80.3981ZM24.9416 42.552C25.0417 42.552 25.0417 42.552 25.2421 42.6521L30.1503 45.5556V29.0355H19.5326V45.3554H19.9332L24.5409 42.7522C24.6411 42.7522 24.6411 42.7522 24.7412 42.6521H24.8414L24.9416 42.552Z" fill="#F3F3F3"/>
<path d="M7.31264 60.3735C6.71163 60.3735 6.41113 60.0731 6.41113 59.4724C6.41113 58.8717 6.71163 58.5713 7.31264 58.5713H18.5313C19.1323 58.5713 19.4328 58.8717 19.4328 59.4724C19.4328 60.0731 19.1323 60.3735 18.5313 60.3735H7.31264Z" fill="#9FCCFF"/>
<path d="M7.31264 65.7802C6.71163 65.7802 6.41113 65.4799 6.41113 64.8791C6.41113 64.2784 6.71163 63.978 7.31264 63.978H21.336C21.937 63.978 22.2375 64.2784 22.2375 64.8791C22.2375 65.4799 21.937 65.7802 21.336 65.7802H7.31264Z" fill="#9FCCFF"/>
</g>
<defs>
<clipPath id="clip0_405_5224">
<rect width="60" height="82" fill="white"/>
</clipPath>
</defs>
</svg>
