<svg width="60" height="82" viewBox="0 0 60 82" fill="none" xmlns="http://www.w3.org/2000/svg">
<g clip-path="url(#clip0_405_5938)">
<path d="M47.8 50.8C47.6 50.8 47.3 50.8 47.1 50.8C43.2 50.6 39.7 49.1 37.1 47.8C30.2 44.5 24.1 39.7 19.1 33.7C15 28.7 12.2 24.1 10.3 19C9.49998 17 8.59998 13.9 8.79998 10.6C8.99998 8.6 9.79998 6.9 11.2 5.5L15.1 1.5C16.1 0.5 17.4 0 18.7 0C20 0 21.2 0.5 22.2 1.6C23 2.3 23.7 3 24.4 3.7C24.7 4.1 25.1 4.4 25.5 4.8L28.6 8C29.7 9.1 30.3 10.4 30.3 11.7C30.3 13 29.7 14.3 28.6 15.4L27.4 16.6C26.6 17.4 25.8 18.2 25 19L24.7 19.2L24.8 19.5C25.5 21.1 26.5 22.7 28 24.5C31 28.2 34.2 31.1 37.7 33.3C38 33.5 38.5 33.7 38.9 33.9L40.1 34.5L44 30.6C45.1 29.5 46.3 29 47.6 29C48.9 29 50.1 29.6 51.2 30.6L57.6 37C58.7 38.1 59.2 39.3 59.2 40.6C59.2 41.9 58.6 43.2 57.6 44.3C57.1 44.8 56.6 45.3 56.1 45.8L55.9 46C55.2 46.7 54.6 47.3 54 48L53.9 48.1C52.4 49.9 50.3 50.8 47.8 50.8Z" fill="#BCC9DA" fill-opacity="0.08"/>
<path d="M38.1 81.4998C35.1 81.2998 31.9001 80.3998 28.2001 78.4998C21.3001 75.1998 15.3001 70.4998 10.3001 64.4998C6.30005 59.8998 3.50005 55.1998 1.50005 49.9998C0.700051 47.9998 -0.199949 44.9998 5.06565e-05 41.6998C0.200051 39.8998 1.00005 38.1998 2.20005 36.7998L6.10005 32.7998C7.20005 31.7998 8.40005 31.2998 9.50005 31.2998C10.8001 31.2998 11.9001 31.7998 12.9001 32.6998C13.3 33.0998 13.7001 33.3998 14.0001 33.7998C14.4001 34.1998 14.7001 34.4998 15.1001 34.7998C15.3001 34.9998 15.5001 35.2998 15.8001 35.4998C15.9001 35.5998 16.1001 35.6998 16.2001 35.8998L19.4001 39.0998C20.5001 40.1998 21.0001 41.3998 21.0001 42.5998C21.0001 43.7998 20.4001 44.9998 19.4001 46.0998L15.4001 50.0998L15.7001 50.5998C16.4001 52.1998 17.4001 53.7998 18.9001 55.6998C21.9001 59.3998 25.1001 62.2998 28.7001 64.4998L29.9001 65.0998L31.3001 65.8998L35.4001 61.7998C36.4001 60.7998 37.6 60.2998 38.8 60.2998C40 60.2998 41.2001 60.7998 42.2001 61.7998L48.6 68.1998C49.6 69.0998 50.1 70.2998 50.1 71.6998C50.1 72.9998 49.6 74.0998 48.6 75.1998L47 76.5998L46.8 76.8998C46.2001 77.4998 45.5 78.1998 44.9001 78.8998L44.8 78.9998C43.2001 80.6998 41.2001 81.4998 38.8 81.4998H38.1ZM9.70005 32.7998C8.90005 32.7998 8.00005 33.1998 7.40005 33.8998L3.40005 37.8998C2.30005 38.9998 1.80005 40.1998 1.50005 41.7998C1.30005 44.0998 1.70005 46.4998 2.80005 49.3998C4.60005 54.2998 7.30005 58.7998 11.3001 63.5998C16.1001 69.3998 21.9001 73.9998 28.7001 77.2998C30.9001 78.3998 34.3 79.7998 38.1 80.0998H38.7001C40.8 80.0998 42.3 79.4998 43.6 77.9998C44.3 77.1998 45.1 76.3998 45.8 75.6998L47.3 74.1998C48.8 72.5998 48.8 70.8998 47.3 69.3998L41 62.9998C40.7001 62.6998 39.9 61.8998 38.8 61.8998C37.8 61.8998 36.9001 62.5998 36.5 62.8998L32.5 66.8998C32.3 67.0998 32 67.3998 31.3001 67.3998C31.1 67.3998 30.8001 67.2998 30.5001 67.1998L30.4001 67.0998C30.0001 66.8998 29.6001 66.6998 29.2001 66.4998C28.7001 66.2998 28.3001 65.9998 27.8001 65.6998C24.1 63.3998 20.8001 60.3998 17.6001 56.3998C15.9001 54.0998 14.7001 52.1998 13.9001 50.3998C13.7001 49.5998 13.6001 49.0998 14.3001 48.4998C15.4001 47.4998 16.4001 46.4998 17.3001 45.5998L18.3001 44.5998C19.1 43.7998 19.5001 42.9998 19.5001 42.1998C19.5001 41.3998 19.1 40.6998 18.3001 39.8998L14.0001 35.5998C13.7001 35.2998 13.5001 35.0998 13.2001 34.7998C12.7001 34.2998 12.3 33.8998 11.9001 33.4998C11.2001 33.0998 10.5001 32.7998 9.70005 32.7998Z" fill="#F3F3F3"/>
<path d="M42.5999 53.3C42.0999 53.3 41.6999 53 41.5999 52.5C41.0999 49.3 39.5999 46.4 37.2999 44.2C34.9999 41.9 32.1 40.4 29 39.9C28.8 39.9 28.5 39.7 28.4 39.5C28.2 39.3 28.2 39 28.2 38.8C28.3 38.3 28.7 38 29.2 38C29.3 38 29.3 38 29.4 38C32.9999 38.6 36.1999 40.3 38.7999 42.9C41.4 45.5 43.1 48.7 43.7 52.3C43.7 52.6 43.7 52.8 43.5 53C43.3 53.2 43.1 53.4 42.9 53.4C42.7 53.3 42.5999 53.3 42.5999 53.3Z" fill="#9FCCFF"/>
<path d="M52.6 52.7999C52.1 52.7999 51.7 52.4999 51.6 51.9999C50.7 46.4999 48 41.3999 44 37.3999C40 33.3999 34.9 30.7999 29.4 29.7999C28.9 29.6999 28.5 29.1999 28.6 28.6999C28.7 28.1999 29.1 27.8999 29.5 27.8999C29.6 27.8999 29.6 27.8999 29.7 27.8999C35.6 28.8999 41.1 31.6999 45.3 35.9999C49.6 40.2999 52.4 45.6999 53.4 51.5999C53.4 51.8999 53.4 52.0999 53.2 52.2999C53.1 52.4999 52.8 52.5999 52.6 52.7999Z" fill="#9FCCFF"/>
</g>
<defs>
<clipPath id="clip0_405_5938">
<rect width="59.2" height="81.5" fill="white"/>
</clipPath>
</defs>
</svg>
