<svg width="60" height="82" viewBox="0 0 60 82" fill="none" xmlns="http://www.w3.org/2000/svg">
<g clip-path="url(#clip0_405_5245)">
<path opacity="0.08" d="M44.5656 62.0513L33.9352 60.1467V60.2469C33.4242 61.3496 32.2998 62.0513 31.1754 62.0513C30.0511 62.0513 28.8245 61.3496 28.4156 60.3472V60.2469L17.7853 62.0513C17.4787 62.0513 17.2743 62.0513 17.172 61.8508C17.0698 61.7506 16.9676 61.3496 16.9676 61.1491V56.9389C16.9676 56.7384 17.0698 56.2372 17.2743 56.1369L26.678 50.2225L25.5536 44.8093V44.709V35.687L3.27085 44.4083C3.16863 44.4083 3.06642 44.4083 3.06642 44.4083C2.9642 44.4083 2.75977 44.4083 2.55534 44.3081C2.2487 44.0073 2.14648 43.8068 2.14648 43.5061V37.291C2.14648 37.0905 2.2487 36.5892 2.65756 36.489L6.03064 34.3839V31.978C6.03064 30.3741 7.25722 28.9707 8.79044 28.9707C10.017 28.9707 11.1414 29.7726 11.448 31.0758V31.176L14.7189 29.2714V26.7653C14.7189 25.1614 15.9455 23.7579 17.4787 23.7579C18.7053 23.7579 19.8296 24.6601 20.1363 25.9633V26.0636L25.3492 23.0562V12.0293C25.3492 8.72127 26.1669 5.4132 27.5979 2.30562C28.109 0.9022 29.54 0 31.1754 0C31.4821 0 31.9932 0 32.1976 0.100244C33.4242 0.601467 34.4463 1.50367 34.8552 2.60636C36.0817 5.51345 36.7973 8.72127 36.7973 11.9291V23.1565L42.0102 26.1638V26.0636C42.3168 24.7604 43.4412 23.8582 44.6678 23.8582C46.201 23.8582 47.4276 25.2616 47.4276 26.8655V29.3716L50.6984 31.2763V31.176C51.0051 29.8729 52.1294 29.0709 53.356 29.0709C54.1737 29.0709 54.787 29.2714 55.2981 29.8729C55.8092 30.4743 56.1158 31.2763 56.1158 32.0782V34.4841L59.4889 36.5892C59.6933 36.6895 60 37.0905 60 37.3912V43.6063C60 43.8068 59.8978 44.2078 59.6933 44.3081C59.5911 44.4083 59.4889 44.4083 59.1823 44.4083C59.08 44.4083 58.9778 44.4083 58.9778 44.4083L36.7973 35.687V44.709V44.8093L35.7751 50.423L45.1789 56.3374C45.3833 56.4376 45.4855 56.8386 45.4855 57.1394V61.3496C45.4855 61.5501 45.3833 61.9511 45.2811 62.0513C45.0766 61.9511 44.9744 62.0513 44.5656 62.0513Z" fill="#BCC9DA"/>
<path d="M38.3305 81.7995L28.4157 80.1956V80.3961C28.0068 81.198 27.0869 81.7995 26.0647 81.7995C25.0426 81.7995 24.0204 81.198 23.7138 80.3961V80.1956H23.5094L13.9012 81.7995C13.6968 81.7995 13.5945 81.7995 13.5945 81.7995C13.5945 81.7995 13.4923 81.4988 13.4923 81.2983V77.5892C13.4923 77.3888 13.5945 77.088 13.6968 77.088L22.2828 71.6748L21.2606 66.6626V58.1418L0.817717 65.9609H0.715503C0.511073 65.9609 0.511073 65.9609 0.408859 65.9609C0.102215 65.7604 0 65.5599 0 65.4597V59.9462C0 59.7457 0.102215 59.445 0.204429 59.445L3.4753 57.5403V55.1345C3.4753 53.7311 4.59966 52.6284 5.82623 52.6284C6.84838 52.6284 7.6661 53.2298 8.07496 54.3325V54.6333L11.448 52.8289V50.423C11.448 49.0196 12.5724 47.9169 13.799 47.9169C14.8211 47.9169 15.7411 48.6186 16.0477 49.7213V50.022L16.3543 49.9218L21.1584 47.1149V37.291C21.1584 34.4841 21.7717 31.577 23.1005 28.6699C23.816 27.467 25.0426 26.665 26.2692 26.665C26.5758 26.665 26.7802 26.665 27.1891 26.7653C28.2112 27.1663 29.029 27.868 29.54 28.9707C30.7666 31.7775 31.3799 34.5844 31.3799 37.1907V47.2152L36.4906 50.1223V49.621C36.7973 48.6186 37.7172 47.9169 38.7394 47.9169C39.9659 47.9169 41.0903 49.1198 41.0903 50.423V52.8289L44.4634 54.6333V54.3325C44.77 53.2298 45.5877 52.6284 46.7121 52.6284C47.3254 52.6284 47.8365 52.8289 48.4497 53.3301C48.8586 53.8313 49.063 54.4328 49.063 55.0342V57.3399L52.3339 59.2445C52.4361 59.3447 52.5383 59.5452 52.5383 59.7457V65.2592C52.5383 65.4597 52.4361 65.6601 52.3339 65.6601C52.2317 65.7604 52.2317 65.7604 52.0273 65.7604H51.8228L31.3799 57.9413V66.4621L30.1533 71.5746L38.7394 76.9878C38.8416 77.088 38.9438 77.2885 38.9438 77.489V81.198C38.9438 81.3985 38.8416 81.599 38.8416 81.6993C38.7393 81.7995 38.6371 81.8998 38.5349 81.8998L38.3305 81.7995ZM26.0647 28.0685C25.247 28.0685 24.5315 28.4694 24.0204 29.3716C22.8961 31.7775 22.385 34.3839 22.385 37.3912V66.2616L24.7359 79.1932C24.8382 80.0954 25.3492 80.5966 26.167 80.5966C26.9847 80.5966 27.4957 80.0954 27.598 79.1932L30.0511 66.2616V37.3912C30.0511 34.4841 29.54 31.978 28.4157 29.6724C28.109 28.9707 27.4957 28.3692 26.8825 28.1687C26.3714 28.0685 26.167 28.0685 26.0647 28.0685ZM14.3101 77.89V80.4963L23.3049 78.8924L22.1806 72.8778L14.3101 77.89ZM28.7223 78.6919L37.7172 80.3961V77.5892L29.8467 72.6773L28.7223 78.6919ZM1.02215 60.3472V64.5575L21.0562 56.6381V48.7188L1.02215 60.3472ZM30.8688 56.8386L50.9029 64.5575V60.2469L30.8688 49.0196V56.8386ZM5.82623 54.0318C5.21295 54.0318 4.59966 54.6333 4.59966 55.335V56.9389L6.9506 55.6357V55.4352V54.934C6.9506 54.4328 6.33731 54.0318 5.82623 54.0318ZM46.201 53.8313C45.5877 53.8313 45.1789 54.132 45.0767 54.7335V55.5355L47.4276 57.0391V55.1345C47.4276 54.4328 46.9165 53.8313 46.201 53.8313ZM13.6968 49.4205C13.0835 49.4205 12.4702 50.022 12.4702 50.7237V52.4279L14.8211 51.1247V50.824C14.9233 50.423 14.8211 50.1223 14.5145 49.8215C14.3101 49.5208 14.0034 49.4205 13.6968 49.4205ZM38.2283 49.5208C37.615 49.5208 37.0017 50.1223 37.0017 50.824V51.1247L39.4549 52.4279V50.824C39.4549 50.1223 38.9438 49.5208 38.2283 49.5208Z" fill="#F3F3F3"/>
<path d="M26.9841 41.8018H25.3486V61.9509H26.9841V41.8018Z" fill="#9FCCFF"/>
<path d="M28.2113 33.6824C27.9047 32.7802 27.087 32.279 26.2692 32.1787C25.3493 32.1787 24.6338 32.7802 24.3272 33.6824L23.7139 35.587L25.3493 36.1885L25.8604 34.2838C25.8604 34.1836 26.0648 34.0834 26.167 34.0834C26.2692 34.0834 26.3714 34.1836 26.4737 34.2838L26.9847 36.1885L28.6202 35.587L28.2113 33.6824Z" fill="#9FCCFF"/>
</g>
<defs>
<clipPath id="clip0_405_5245">
<rect width="60" height="82" fill="white"/>
</clipPath>
</defs>
</svg>
