<svg width="60" height="82" viewBox="0 0 60 82" fill="none" xmlns="http://www.w3.org/2000/svg">
<g clip-path="url(#clip0_405_5266)">
<path opacity="0.08" d="M32.9647 54.0659C17.8893 54.0659 5.72852 42.0513 5.72852 27.1331C5.72852 12.1148 17.8893 0 32.9647 0C47.9396 0 59.9999 12.1148 59.9999 27.1331C59.9999 42.0513 47.9396 54.0659 32.9647 54.0659Z" fill="#BCC9DA"/>
<path d="M24.1206 82C10.8543 82 0 71.2869 0 58.1709C0 44.9548 10.8543 34.1416 24.1206 34.1416C37.2864 34.1416 48.0402 44.9548 48.0402 58.1709C48.0402 71.2869 37.2864 82 24.1206 82ZM24.1206 35.5433C11.7588 35.5433 1.30653 45.956 1.30653 58.271C1.30653 70.6862 11.5578 80.6984 24.1206 80.6984C36.5829 80.6984 46.6332 70.5861 46.6332 58.271C46.6332 45.7558 36.4824 35.5433 24.1206 35.5433Z" fill="#F3F3F3"/>
<path d="M24.0201 68.0832C20.1005 68.0832 16.3819 65.6803 15.0754 62.0759C14.9749 61.7755 14.9749 61.6754 15.0754 61.4752C15.1759 61.1748 15.3769 61.1748 15.5779 61.1748C15.6784 61.1748 15.6784 61.1748 15.8794 61.1748C16.2814 61.1748 16.4824 61.4752 16.6834 61.6754C17.6884 64.6791 20.804 66.5814 24.0201 66.5814C27.2362 66.5814 30.2513 64.579 31.3568 61.6754C31.4573 61.2749 31.7588 61.1748 32.1608 61.1748C32.2613 61.1748 32.2613 61.1748 32.4623 61.1748C32.7638 61.2749 32.8643 61.4752 32.9648 61.4752C33.0653 61.7755 33.0653 61.8757 32.9648 62.0759C31.5578 65.5802 28.0402 68.0832 24.0201 68.0832Z" fill="#9FCCFF"/>
<path d="M18.4929 52.0637C17.6889 52.0637 16.9854 51.3629 16.9854 50.5619C16.9854 49.7609 17.6889 49.0601 18.4929 49.0601C19.2969 49.0601 20.0004 49.7609 20.0004 50.5619C20.0004 51.463 19.2969 52.0637 18.4929 52.0637Z" fill="#9FCCFF"/>
<path d="M29.5476 52.0637C28.7436 52.0637 28.04 51.3629 28.04 50.5619C28.04 49.7609 28.7436 49.0601 29.5476 49.0601C30.3516 49.0601 31.0551 49.7609 31.0551 50.5619C31.0551 51.463 30.4521 52.0637 29.5476 52.0637Z" fill="#9FCCFF"/>
</g>
<defs>
<clipPath id="clip0_405_5266">
<rect width="60" height="82" fill="white"/>
</clipPath>
</defs>
</svg>
