<svg width="60" height="82" viewBox="0 0 60 82" fill="none" xmlns="http://www.w3.org/2000/svg">
<g clip-path="url(#clip0_405_5256)">
<path opacity="0.08" d="M35.3479 60.0733C28.1154 60.0733 22.207 54.2662 22.207 47.1575C22.207 43.2527 23.9388 39.7485 26.9948 37.3455V8.21001C26.9948 3.80464 30.7639 0 35.2461 0C39.7283 0 43.4974 3.80464 43.4974 8.10989V37.1453C46.5534 39.8486 48.2851 43.453 48.2851 47.1575C48.387 54.2662 42.4787 60.0733 35.3479 60.0733ZM51.9524 35.0427C51.3412 35.0427 50.9337 34.442 50.9337 34.0415C50.9337 33.641 51.5449 33.0403 51.9524 33.0403H58.9812C59.5924 33.0403 59.9999 33.641 59.9999 34.0415C59.9999 34.442 59.3887 35.0427 58.9812 35.0427H51.9524ZM51.6468 28.0342C51.0356 28.0342 50.6281 27.4335 50.6281 27.033C50.6281 26.6325 51.2393 26.0317 51.6468 26.0317H56.4345C56.842 26.0317 57.2495 26.1319 57.3513 26.4322C57.4532 26.5324 57.4532 26.8327 57.4532 27.1331C57.4532 27.7338 56.842 28.1343 56.4345 28.1343H51.6468V28.0342ZM51.9524 20.8254C51.3412 20.8254 50.9337 20.2247 50.9337 19.8242C50.9337 19.2234 51.5449 18.823 51.9524 18.823H58.9812C59.5924 18.823 59.9999 19.4237 59.9999 19.8242C59.9999 20.4249 59.3887 20.8254 58.9812 20.8254H51.9524ZM51.6468 13.917C51.0356 13.917 50.6281 13.3162 50.6281 12.9157C50.6281 12.315 51.2393 11.9145 51.6468 11.9145H56.4345C56.842 11.9145 57.2495 12.0147 57.3513 12.315C57.4532 12.4151 57.4532 12.7155 57.4532 13.0159C57.4532 13.6166 56.842 14.0171 56.4345 14.0171H51.6468V13.917ZM51.9524 6.70818C51.3412 6.70818 50.9337 6.10745 50.9337 5.70696C50.9337 5.30647 51.5449 4.70574 51.9524 4.70574H58.9812C59.5924 4.80586 59.9999 5.40659 59.9999 5.9072C59.9999 6.50794 59.3887 6.90842 58.9812 6.90842L51.9524 6.70818Z" fill="#BCC9DA"/>
<path d="M11.4092 82C5.09338 82 0 76.8937 0 70.586C0 67.0818 1.62988 63.7777 4.27844 61.8754V35.3431C4.27844 31.4383 7.5382 28.1343 11.4092 28.1343C15.2801 28.1343 18.5399 31.4383 18.5399 35.2429V61.4749C21.2903 63.8779 22.8183 67.1819 22.8183 70.4859C22.8183 73.5897 21.6978 76.3931 19.4567 78.5958C17.3175 80.7985 14.4652 82 11.4092 82ZM11.7148 29.7362C8.55688 29.7362 6.01019 32.3394 6.01019 35.4432V62.376C6.01019 62.7765 5.90832 62.7765 5.70458 62.8766C2.95416 64.8791 1.42615 67.6825 1.42615 70.8864C1.42615 76.293 5.90832 80.6984 11.4092 80.6984C16.8081 80.6984 21.2903 76.293 21.5959 70.6862C21.5959 67.5824 20.1698 64.6788 17.6231 62.6764C17.6231 62.5763 17.3175 62.1758 17.3175 62.0757V35.2429C17.3175 32.3394 14.6689 29.7362 11.7148 29.7362ZM26.3837 59.3724C26.0781 59.3724 25.6706 58.8718 25.6706 58.6715C25.6706 58.3711 26.18 57.9707 26.3837 57.9707H32.6995C33.0051 57.9707 33.4126 58.4713 33.4126 58.6715C33.4126 58.9719 32.9032 59.3724 32.6995 59.3724H26.3837ZM26.18 53.0647C25.8744 53.0647 25.4669 52.5641 25.4669 52.3638C25.4669 52.0635 25.9762 51.663 26.18 51.663H30.4584C30.8659 51.663 31.0696 51.7631 31.0696 51.8632C31.1715 51.9633 31.1715 52.2637 31.1715 52.3638C31.1715 52.6642 30.6621 53.0647 30.4584 53.0647H26.18ZM26.3837 46.5567C26.0781 46.5567 25.6706 46.0561 25.6706 45.8559C25.6706 45.5555 26.18 45.155 26.3837 45.155H32.6995C33.0051 45.155 33.4126 45.6556 33.4126 45.8559C33.4126 46.1563 32.9032 46.5567 32.6995 46.5567H26.3837ZM26.18 40.2491C25.8744 40.2491 25.4669 39.7484 25.4669 39.5482C25.4669 39.2478 25.9762 38.8473 26.18 38.8473H30.4584C30.8659 38.8473 31.0696 38.9475 31.0696 39.0476C31.1715 39.1477 31.1715 39.4481 31.1715 39.5482C31.1715 39.8486 30.6621 40.2491 30.4584 40.2491H26.18ZM26.5874 33.8412V33.7411H26.3837C26.0781 33.7411 25.6706 33.2405 25.6706 33.0403C25.6706 32.7399 26.18 32.3394 26.3837 32.3394H32.6995C33.0051 32.4395 33.4126 32.7399 33.4126 33.1404C33.4126 33.4407 32.9032 33.8412 32.6995 33.8412H26.5874Z" fill="#F3F3F3"/>
<path d="M11.6128 75.8925C8.65869 75.8925 6.21387 73.5897 6.21387 70.6861C6.21387 68.2832 8.04748 66.0805 10.4923 65.5799H10.696V35.1428C10.696 34.6422 10.8998 34.3418 11.511 34.2417C11.9185 34.2417 12.4278 34.8424 12.4278 35.1428V65.68H12.6315C15.0763 66.0805 16.91 68.1831 17.0118 70.6861C17.0118 73.5897 14.6689 75.8925 11.6128 75.8925ZM11.511 66.9816C9.47363 66.9816 7.74188 68.6837 7.74188 70.6861C7.74188 72.7887 9.37176 74.3907 11.511 74.3907C13.5483 74.3907 15.2801 72.6886 15.2801 70.6861C15.2801 68.5836 13.6502 66.9816 11.511 66.9816Z" fill="#9FCCFF"/>
</g>
<defs>
<clipPath id="clip0_405_5256">
<rect width="60" height="82" fill="white"/>
</clipPath>
</defs>
</svg>
