<svg width="51" height="50" viewBox="0 0 51 50" fill="none" xmlns="http://www.w3.org/2000/svg">
<rect width="51" height="50" fill="#F1F1F1"/>
<path d="M20.0785 12H37.0172C37.1953 12 37.2846 12.2154 37.1586 12.3414L31.5586 17.9414C31.5211 17.9789 31.4702 18 31.4172 18H20.7C20.5895 18 20.5 18.0895 20.5 18.2V21.8C20.5 21.9105 20.5895 22 20.7 22H31.3C31.4105 22 31.5 22.0895 31.5 22.2V27.3C31.5 27.4105 31.4105 27.5 31.3 27.5H20.7C20.5895 27.5 20.5 27.5895 20.5 27.7V38.3C20.5 38.4105 20.4105 38.5 20.3 38.5H13.2C13.0895 38.5 13 38.4105 13 38.3V18.5872C13 18.5316 13.0232 18.4785 13.0639 18.4407L19.9424 12.0534C19.9794 12.0191 20.0281 12 20.0785 12Z" fill="#1A2633"/>
</svg>
